
<svg viewBox="0 0 256 256" xmlns="http://www.w3.org/2000/svg">
    <path d="M224 104v0c0 4.418-3.582 8-8 8 -4.419 0-8-3.582-8-8V59.32l-66.33 66.34v0c-3.126 3.125-8.195 3.125-11.32-.001 -3.126-3.126-3.126-8.195 0-11.32l66.33-66.34H152v0c-4.419 0-8-3.582-8-8 0-4.419 3.581-8 8-8h64v0c4.418 0 8 3.581 8 8Zm-40 24v0c-4.419 0-8 3.581-8 8v72H48V80h72v0c4.418 0 8-3.582 8-8 0-4.419-3.582-8-8-8H48v0c-8.837 0-16 7.163-16 16v128 0c0 8.836 7.163 16 16 16h128v0c8.836 0 16-7.164 16-16v-72 0c0-4.419-3.582-8-8-8Z"/>
</svg>