
<svg viewBox="0 0 256 256" xmlns="http://www.w3.org/2000/svg">
    <path d="M90.34 61.66v0c-3.126-3.123-3.129-8.188-.007-11.314 .002-.003.004-.005.006-.007l32-32v0c3.122-3.126 8.187-3.129 11.313-.007 .002.002.004.004.006.006l32 32v0c3.125 3.125 3.125 8.194-.001 11.32 -3.126 3.125-8.195 3.125-11.32 0l-18.34-18.35v52.69 0c0 4.418-3.582 8-8 8 -4.419 0-8-3.582-8-8v-52.69l-18.34 18.35v0c-3.123 3.125-8.188 3.128-11.314.006 -.003-.003-.005-.005-.007-.007Zm64 132.68L136 212.69V160v0c0-4.419-3.582-8-8-8 -4.419 0-8 3.581-8 8v52.69l-18.34-18.35v0c-3.126-3.126-8.195-3.126-11.32 0 -3.126 3.125-3.126 8.194 0 11.32l32 32v0c3.122 3.125 8.187 3.128 11.313.006 .002-.003.004-.005.006-.007l32-32v0c3.125-3.126 3.125-8.195 0-11.32 -3.126-3.126-8.195-3.126-11.32 0Zm83.32-72l-32-32v0c-3.126-3.126-8.195-3.126-11.32 0 -3.126 3.125-3.126 8.194 0 11.32L212.69 120H160v0c-4.419 0-8 3.581-8 8 0 4.418 3.581 8 8 8h52.69l-18.35 18.34v0c-3.126 3.125-3.126 8.194 0 11.32 3.125 3.125 8.194 3.125 11.32 0l32-32v0c3.125-3.123 3.128-8.188.006-11.314 -.003-.003-.005-.005-.007-.007ZM43.31 136H96v0c4.418 0 8-3.582 8-8 0-4.419-3.582-8-8-8H43.31l18.35-18.34v0c3.125-3.126 3.125-8.195-.001-11.32 -3.126-3.126-8.195-3.126-11.32 0l-32 32h0c-3.126 3.122-3.129 8.187-.007 11.313 .002.002.004.004.006.006l32 32h0c3.125 3.125 8.194 3.125 11.32-.001 3.125-3.126 3.125-8.195 0-11.32Z"/>
</svg>