
<svg viewBox="0 0 256 256" xmlns="http://www.w3.org/2000/svg">
    <path d="M128 24v0C70.562 24 24 70.562 24 128c0 57.437 46.562 104 104 104 57.437 0 104-46.563 104-104v0c-.061-57.413-46.588-103.94-104-104Zm0 192v0c-48.602 0-88-39.399-88-88 0-48.602 39.398-88 88-88 48.601 0 88 39.398 88 88v0c-.056 48.578-39.422 87.944-88 88Zm37.66-85.66v0c3.125 3.122 3.128 8.187.006 11.313 -.003.002-.005.004-.007.006l-32 32v0c-3.123 3.125-8.188 3.128-11.314.006 -.003-.003-.005-.005-.007-.007l-32-32h0c-3.126-3.126-3.126-8.195-.001-11.32 3.125-3.126 8.194-3.126 11.32 0l18.34 18.35v-60.69 0c0-4.419 3.581-8 8-8 4.418 0 8 3.581 8 8v60.69l18.34-18.35v0c3.122-3.126 8.187-3.129 11.313-.007 .002.002.004.004.006.006Z"/>
</svg>