
<svg viewBox="0 0 256 256" xmlns="http://www.w3.org/2000/svg">
    <path d="M128 136v64 0c0 4.418-3.582 8-8 8 -4.419 0-8-3.582-8-8v-44.68l-66.34 66.34h-.001c-3.126 3.125-8.195 3.125-11.32-.001 -3.126-3.126-3.126-8.195 0-11.32l66.34-66.34h-44.68v0c-4.419 0-8-3.582-8-8 0-4.419 3.581-8 8-8h64v0c4.418 0 8 3.581 8 8Zm80-104H80v0c-8.837 0-16 7.163-16 16v48 0c0 4.418 3.581 8 8 8 4.418 0 8-3.582 8-8V48h128v128h-48v0c-4.419 0-8 3.581-8 8 0 4.418 3.581 8 8 8h48v0c8.836 0 16-7.164 16-16V48v0c0-8.837-7.164-16-16-16Z"/>
</svg>