
<svg viewBox="0 0 256 256" xmlns="http://www.w3.org/2000/svg">
    <path d="M229.66 189.66l-32 32v0c-3.123 3.125-8.188 3.128-11.314.006 -.003-.003-.005-.005-.007-.007l-32-32v0c-3.126-3.126-3.126-8.195 0-11.32 3.125-3.126 8.194-3.126 11.32 0l18.34 18.35v-57.38l-56-56 -56 56v57.38l18.34-18.35v0c3.125-3.126 8.194-3.126 11.32 0 3.125 3.125 3.125 8.194 0 11.32l-32 32v0c-3.123 3.125-8.188 3.128-11.314.006 -.003-.003-.005-.005-.007-.007l-32-32h-.001c-3.126-3.126-3.126-8.195 0-11.32 3.125-3.126 8.194-3.126 11.32 0l18.34 18.35v-60.69 0c-.002-2.123.84-4.159 2.34-5.66l61.66-61.65v-44.69 0c0-4.419 3.581-8 8-8 4.418 0 8 3.581 8 8v44.69l61.66 61.65v0c1.499 1.501 2.341 3.537 2.34 5.66v60.69l18.34-18.35v0c3.125-3.126 8.194-3.126 11.32 0 3.125 3.125 3.125 8.194 0 11.32Z"/>
</svg>