
<svg viewBox="0 0 256 256" xmlns="http://www.w3.org/2000/svg">
    <path d="M165.66 194.34v0c3.125 3.122 3.128 8.187.006 11.313 -.003.002-.005.004-.007.006l-32 32v0c-3.123 3.125-8.188 3.128-11.314.006 -.003-.003-.005-.005-.007-.007l-32-32h0c-3.126-3.126-3.126-8.195-.001-11.32 3.125-3.126 8.194-3.126 11.32 0l18.34 18.35V43.308l-18.34 18.35v0c-3.126 3.125-8.195 3.125-11.32-.001 -3.126-3.126-3.126-8.195 0-11.32l32-32v0c3.122-3.126 8.187-3.129 11.313-.007 .002.002.004.004.006.006l32 32v0c3.125 3.125 3.125 8.194-.001 11.32 -3.126 3.125-8.195 3.125-11.32 0l-18.34-18.35v169.38l18.34-18.35v0c3.122-3.126 8.187-3.129 11.313-.007 .002.002.004.004.006.006Z"/>
</svg>