
<svg viewBox="0 0 256 256" xmlns="http://www.w3.org/2000/svg">
    <path d="M144 104V64v0c0-4.419 3.581-8 8-8 4.418 0 8 3.581 8 8v20.69l42.34-42.35v-.001c3.125-3.126 8.194-3.126 11.32 0 3.125 3.125 3.125 8.194 0 11.32l-42.35 42.34H192v0c4.418 0 8 3.581 8 8 0 4.418-3.582 8-8 8h-40v0c-4.419 0-8-3.582-8-8Zm-40 40H64v0c-4.419 0-8 3.581-8 8 0 4.418 3.581 8 8 8h20.69l-42.35 42.34h-.001c-3.126 3.125-3.126 8.194 0 11.32 3.125 3.125 8.194 3.125 11.32 0l42.34-42.35V192v0c0 4.418 3.581 8 8 8 4.418 0 8-3.582 8-8v-40 0c0-4.419-3.582-8-8-8Zm67.31 16H192v0c4.418 0 8-3.582 8-8 0-4.419-3.582-8-8-8h-40v0c-4.419 0-8 3.581-8 8v40 0c0 4.418 3.581 8 8 8 4.418 0 8-3.582 8-8v-20.69l42.34 42.35v0c3.125 3.125 8.194 3.125 11.32 0 3.125-3.126 3.125-8.195 0-11.32ZM104 56v-.001c-4.419 0-8 3.581-8 8v20.69l-42.34-42.35v0c-3.126-3.126-8.195-3.126-11.32 0 -3.126 3.125-3.126 8.194 0 11.32l42.35 42.34H64v0c-4.419 0-8 3.581-8 8 0 4.418 3.581 8 8 8h40v0c4.418 0 8-3.582 8-8v-40 0c0-4.419-3.582-8-8-8Z"/>
</svg>