
<svg viewBox="0 0 256 256" xmlns="http://www.w3.org/2000/svg">
    <path d="M192 40v64 0c.001 2.122-.841 4.158-2.34 5.66L136 163.31v49.38l18.34-18.35v0c3.125-3.126 8.194-3.126 11.32 0 3.125 3.125 3.125 8.194 0 11.32l-32 32v0c-3.123 3.125-8.188 3.128-11.314.006 -.003-.003-.005-.005-.007-.007l-32-32h0c-3.126-3.126-3.126-8.195-.001-11.32 3.125-3.126 8.194-3.126 11.32 0l18.34 18.35v-49.38l-53.66-53.65v0c-1.5-1.502-2.342-3.538-2.34-5.66v-64 0c0-4.419 3.581-8 8-8 4.418 0 8 3.581 8 8v60.69l48 48 48-48v-60.69 0c0-4.419 3.581-8 8-8 4.418 0 8 3.581 8 8Z"/>
</svg>