
<svg viewBox="0 0 256 256" xmlns="http://www.w3.org/2000/svg">
    <path d="M224 128v0c0 4.418-3.582 8-8 8H40v0c-4.419 0-8-3.582-8-8 0-4.419 3.581-8 8-8h176v0c4.418 0 8 3.581 8 8ZM101.66 53.66L120 35.31V96v0c0 4.418 3.581 8 8 8 4.418 0 8-3.582 8-8V35.31l18.34 18.35v0c3.125 3.125 8.194 3.125 11.32-.001 3.125-3.126 3.125-8.195 0-11.32l-32-32v0c-3.123-3.126-8.188-3.129-11.314-.007 -.003.002-.005.004-.007.006l-32 32v0c-3.126 3.125-3.126 8.194 0 11.32 3.125 3.125 8.194 3.125 11.32 0Zm52.68 148.68L136 220.69V160v0c0-4.419-3.582-8-8-8 -4.419 0-8 3.581-8 8v60.69l-18.34-18.35v0c-3.126-3.126-8.195-3.126-11.32 0 -3.126 3.125-3.126 8.194 0 11.32l32 32v0c3.122 3.125 8.187 3.128 11.313.006 .002-.003.004-.005.006-.007l32-32v0c3.125-3.126 3.125-8.195 0-11.32 -3.126-3.126-8.195-3.126-11.32 0Z"/>
</svg>