
<svg viewBox="0 0 256 256" xmlns="http://www.w3.org/2000/svg">
    <path d="M224 128v-.001c.004 52.519-42.196 95.294-94.71 96H128v0c-24.518.061-48.118-9.322-65.9-26.2h0c-3.212-3.038-3.353-8.104-.315-11.315 3.037-3.212 8.103-3.353 11.315-.315v0c32.143 30.313 82.774 28.83 113.088-3.313 30.313-32.144 28.83-82.775-3.313-113.089 -31.476-29.684-80.848-28.966-111.446 1.621h0c-.082.088-.169.171-.26.25l-26.58 24.36h27.41v0c4.418 0 8 3.581 8 8 0 4.418-3.582 8-8 8h-48v0c-4.419 0-8-3.582-8-8v-48 0c0-4.419 3.581-8 8-8 4.418 0 8 3.581 8 8v29.8l28.25-25.8 0-.001c37.563-37.418 98.346-37.299 135.764.264 17.919 17.989 27.981 42.344 27.985 67.735Z"/>
</svg>