
<svg viewBox="0 0 256 256" xmlns="http://www.w3.org/2000/svg">
    <path d="M213.66 181.66l-32 32v0c-3.126 3.125-8.195 3.125-11.32 0 -3.126-3.126-3.126-8.195 0-11.32L188.69 184H48v0c-4.419 0-8-3.582-8-8 0-4.419 3.581-8 8-8h140.69l-18.35-18.34v0c-3.126-3.126-3.126-8.195 0-11.32 3.125-3.126 8.194-3.126 11.32 0l32 32v0c3.125 3.122 3.128 8.187.006 11.313 -.003.002-.005.004-.007.006Zm-139.32-64h0c3.125 3.125 8.194 3.125 11.32-.001 3.125-3.126 3.125-8.195-.001-11.32l-18.35-18.34h140.69v0c4.418 0 8-3.582 8-8 0-4.419-3.582-8-8-8H67.309l18.35-18.34v0c3.125-3.126 3.125-8.195 0-11.32 -3.126-3.126-8.195-3.126-11.32-.001l-32 32h0c-3.126 3.122-3.129 8.187-.007 11.313 .002.002.004.004.006.006Z"/>
</svg>