
<svg viewBox="0 0 256 256" xmlns="http://www.w3.org/2000/svg">
    <path d="M237.66 133.66l-32 32v0c-3.126 3.125-8.195 3.125-11.32 0 -3.126-3.126-3.126-8.195 0-11.32L212.69 136H43.31l18.35 18.34h0c3.125 3.125 3.125 8.194-.001 11.32 -3.126 3.125-8.195 3.125-11.32 0l-32-32v0c-3.126-3.123-3.129-8.188-.007-11.314 .002-.003.004-.005.006-.007l32-32h-.001c3.125-3.126 8.194-3.126 11.32 0 3.125 3.125 3.125 8.194 0 11.32l-18.35 18.34h169.38l-18.35-18.34v0c-3.126-3.126-3.126-8.195 0-11.32 3.125-3.126 8.194-3.126 11.32-.001l32 32v0c3.125 3.122 3.128 8.187.006 11.313 -.003.002-.005.004-.007.006Z"/>
</svg>