
<svg viewBox="0 0 256 256" xmlns="http://www.w3.org/2000/svg">
    <path d="M208 32H48v0c-8.837 0-16 7.163-16 16v160 0c0 8.836 7.163 16 16 16h160v0c8.836 0 16-7.164 16-16V48v0c0-8.837-7.164-16-16-16Zm0 176H48V48h160ZM90.34 165.66v0c-3.126-3.123-3.129-8.188-.007-11.314 .002-.003.004-.005.006-.007l50.35-50.34h-28.69v0c-4.419 0-8-3.582-8-8 0-4.419 3.581-8 8-8h48v0c4.418 0 8 3.581 8 8v48 0c0 4.418-3.582 8-8 8 -4.419 0-8-3.582-8-8v-28.69l-50.34 50.35v0c-3.123 3.125-8.188 3.128-11.314.006 -.003-.003-.005-.005-.007-.007Z"/>
</svg>