
<svg viewBox="0 0 256 256" xmlns="http://www.w3.org/2000/svg">
    <path d="M216 48v48 0c0 4.418-3.582 8-8 8 -4.419 0-8-3.582-8-8V67.31l-42.34 42.35v0c-3.126 3.125-8.195 3.125-11.32 0 -3.126-3.126-3.126-8.195 0-11.32L188.69 56H160v0c-4.419 0-8-3.582-8-8 0-4.419 3.581-8 8-8h48v0c4.418 0 8 3.581 8 8ZM98.34 146.34L56 188.69V160v0c0-4.419-3.582-8-8-8 -4.419 0-8 3.581-8 8v48 0c0 4.418 3.581 8 8 8h48v0c4.418 0 8-3.582 8-8 0-4.419-3.582-8-8-8H67.31l42.35-42.34h-.001c3.125-3.126 3.125-8.195 0-11.32 -3.126-3.126-8.195-3.126-11.32 0ZM208 152v0c-4.419 0-8 3.581-8 8v28.69l-42.34-42.35v0c-3.126-3.126-8.195-3.126-11.32-.001 -3.126 3.125-3.126 8.194-.001 11.32l42.35 42.34h-28.69v0c-4.419 0-8 3.581-8 8 0 4.418 3.581 8 8 8h48v0c4.418 0 8-3.582 8-8v-48 0c0-4.419-3.582-8-8-8ZM67.31 56H96v0c4.418 0 8-3.582 8-8 0-4.419-3.582-8-8-8H48v0c-4.419 0-8 3.581-8 8v48 0c0 4.418 3.581 8 8 8 4.418 0 8-3.582 8-8V67.31l42.34 42.35v0c3.125 3.125 8.194 3.125 11.32 0 3.125-3.126 3.125-8.195 0-11.32Z"/>
</svg>