
<svg viewBox="0 0 256 256" xmlns="http://www.w3.org/2000/svg">
    <path d="M213.66 53.66L163.31 104H192v0c4.418 0 8 3.581 8 8 0 4.418-3.582 8-8 8h-48v0c-4.419 0-8-3.582-8-8V64v0c0-4.419 3.581-8 8-8 4.418 0 8 3.581 8 8v28.69l50.34-50.35v-.001c3.125-3.126 8.194-3.126 11.32 0 3.125 3.125 3.125 8.194 0 11.32ZM112 136H64v0c-4.419 0-8 3.581-8 8 0 4.418 3.581 8 8 8h28.69l-50.35 50.34h-.001c-3.126 3.125-3.126 8.194 0 11.32 3.125 3.125 8.194 3.125 11.32 0l50.34-50.35V192v0c0 4.418 3.581 8 8 8 4.418 0 8-3.582 8-8v-48 0c0-4.419-3.582-8-8-8Z"/>
</svg>