
<svg viewBox="0 0 256 256" xmlns="http://www.w3.org/2000/svg">
    <path d="M208 32H48v0c-8.837 0-16 7.163-16 16v160 0c0 8.836 7.163 16 16 16h160v0c8.836 0 16-7.164 16-16V48v0c0-8.837-7.164-16-16-16Zm0 176H48V48h160ZM80 128v0c0-4.419 3.581-8 8-8h60.69l-18.35-18.34v0c-3.126-3.126-3.126-8.195 0-11.32 3.125-3.126 8.194-3.126 11.32-.001l32 32v0c3.125 3.122 3.128 8.187.006 11.313 -.003.002-.005.004-.007.006l-32 32v0c-3.126 3.125-8.195 3.125-11.32 0 -3.126-3.126-3.126-8.195 0-11.32l18.35-18.34h-60.69v0c-4.419 0-8-3.582-8-8Z"/>
</svg>