
<svg viewBox="0 0 256 256" xmlns="http://www.w3.org/2000/svg">
    <path d="M208 32H48v0c-8.837 0-16 7.163-16 16v160 0c0 8.836 7.163 16 16 16h160v0c8.836 0 16-7.164 16-16V48v0c0-8.837-7.164-16-16-16Zm0 176H48V48h160v160Zm-42.34-77.66v0c3.125 3.122 3.128 8.187.006 11.313 -.003.002-.005.004-.007.006l-32 32v0c-3.123 3.125-8.188 3.128-11.314.006 -.003-.003-.005-.005-.007-.007l-32-32h0c-3.126-3.126-3.126-8.195-.001-11.32 3.125-3.126 8.194-3.126 11.32 0l18.34 18.35v-60.69 0c0-4.419 3.581-8 8-8 4.418 0 8 3.581 8 8v60.69l18.34-18.35v0c3.122-3.126 8.187-3.129 11.313-.007 .002.002.004.004.006.006Z"/>
</svg>