
<svg viewBox="0 0 256 256" xmlns="http://www.w3.org/2000/svg">
    <path d="M240 56v48 0c0 4.418-3.582 8-8 8h-48v0c-4.419 0-8-3.582-8-8 0-4.419 3.581-8 8-8h27.4l-26.59-24.36 -.25-.24v-.001c-31.248-31.237-81.902-31.227-113.138.021 -31.237 31.247-31.227 81.901.021 113.137 30.598 30.586 79.97 31.305 111.445 1.621v0c3.211-3.038 8.277-2.897 11.315.315 3.037 3.211 2.896 8.277-.315 11.315h0c-17.786 16.867-41.379 26.245-65.89 26.19h-1.32 -.001c-53.015-.727-95.403-44.292-94.677-97.306 .726-53.015 44.291-95.403 97.305-94.677 24.941.341 48.769 10.377 66.44 27.981l28.25 25.8v-29.8 0c0-4.419 3.581-8 8-8 4.418 0 8 3.581 8 8Z"/>
</svg>