
<svg viewBox="0 0 256 256" xmlns="http://www.w3.org/2000/svg">
    <path d="M136 40v176 0c0 4.418-3.582 8-8 8 -4.419 0-8-3.582-8-8V40v0c0-4.419 3.581-8 8-8 4.418 0 8 3.581 8 8Zm-40 80H35.31l18.35-18.34v0c3.125-3.126 3.125-8.195-.001-11.32 -3.126-3.126-8.195-3.126-11.32 0l-32 32v0c-3.126 3.122-3.129 8.187-.007 11.313 .002.002.004.004.006.006l32 32h0c3.125 3.125 8.194 3.125 11.32-.001 3.125-3.126 3.125-8.195 0-11.32l-18.35-18.34h60.69v0c4.418 0 8-3.582 8-8 0-4.419-3.582-8-8-8Zm149.66 2.34l-32-32v0c-3.126-3.126-8.195-3.126-11.32 0 -3.126 3.125-3.126 8.194 0 11.32L220.69 120H160v0c-4.419 0-8 3.581-8 8 0 4.418 3.581 8 8 8h60.69l-18.35 18.34v0c-3.126 3.125-3.126 8.194 0 11.32 3.125 3.125 8.194 3.125 11.32 0l32-32v0c3.125-3.123 3.128-8.188.006-11.314 -.003-.003-.005-.005-.007-.007Z"/>
</svg>