
<svg viewBox="0 0 256 256" xmlns="http://www.w3.org/2000/svg">
    <path d="M128 24v0C70.562 24 24 70.562 24 128c0 57.437 46.562 104 104 104 57.437 0 104-46.563 104-104v0c-.061-57.413-46.588-103.94-104-104Zm0 192v0c-48.602 0-88-39.399-88-88 0-48.602 39.398-88 88-88 48.601 0 88 39.398 88 88v0c-.056 48.578-39.422 87.944-88 88Zm40-104v48 0c0 4.418-3.582 8-8 8h-48v0c-4.419 0-8-3.582-8-8 0-4.419 3.581-8 8-8h28.69l-50.35-50.34v0c-3.126-3.126-3.126-8.195 0-11.32 3.125-3.126 8.194-3.126 11.32 0L152 140.69V112v0c0-4.419 3.581-8 8-8 4.418 0 8 3.581 8 8Z"/>
</svg>