
<svg viewBox="0 0 256 256" xmlns="http://www.w3.org/2000/svg">
    <path d="M208 32H48v0c-8.837 0-16 7.163-16 16v160 0c0 8.836 7.163 16 16 16h160v0c8.836 0 16-7.164 16-16V48v0c0-8.837-7.164-16-16-16Zm0 176H48V48h160ZM82.34 133.66v0c-3.126-3.123-3.129-8.188-.007-11.314 .002-.003.004-.005.006-.007l32-32v0c3.125-3.126 8.194-3.126 11.32 0 3.125 3.125 3.125 8.194 0 11.32l-18.35 18.34h60.69v0c4.418 0 8 3.581 8 8 0 4.418-3.582 8-8 8h-60.69l18.35 18.34v0c3.125 3.125 3.125 8.194 0 11.32 -3.126 3.125-8.195 3.125-11.32 0Z"/>
</svg>