
<svg viewBox="0 0 256 256" xmlns="http://www.w3.org/2000/svg">
    <path d="M117.66 170.34v0c3.125 3.122 3.128 8.187.006 11.313 -.003.002-.005.004-.007.006l-32 32v0c-3.123 3.125-8.188 3.128-11.314.006 -.003-.003-.005-.005-.007-.007l-32-32h-.001c-3.126-3.126-3.126-8.195 0-11.32 3.125-3.126 8.194-3.126 11.32 0l18.34 18.35V47.998v0c0-4.419 3.581-8 8-8 4.418 0 8 3.581 8 8v140.69l18.34-18.35v0c3.122-3.126 8.187-3.129 11.313-.007 .002.002.004.004.006.006Zm96-96l-32-32v0c-3.123-3.126-8.188-3.129-11.314-.007 -.003.002-.005.004-.007.006l-32 32v0c-3.126 3.125-3.126 8.194 0 11.32 3.125 3.125 8.194 3.125 11.32 0l18.34-18.35v140.69 0c0 4.418 3.581 8 8 8 4.418 0 8-3.582 8-8V67.309l18.34 18.35v0c3.125 3.125 8.194 3.125 11.32-.001 3.125-3.126 3.125-8.195 0-11.32Z"/>
</svg>