
<svg viewBox="0 0 256 256" xmlns="http://www.w3.org/2000/svg">
    <path d="M90.34 69.66v0c-3.126-3.126-3.126-8.195 0-11.32 3.125-3.126 8.194-3.126 11.32-.001L120 76.689v-52.69 0c0-4.419 3.581-8 8-8 4.418 0 8 3.581 8 8v52.69l18.34-18.35v-.001c3.125-3.126 8.194-3.126 11.32 0 3.125 3.125 3.125 8.194 0 11.32l-32 32v0c-3.123 3.125-8.188 3.128-11.314.006 -.003-.003-.005-.005-.007-.007Zm43.32 84.68v0c-3.123-3.126-8.188-3.129-11.314-.007 -.003.002-.005.004-.007.006l-32 32v0c-3.126 3.125-3.126 8.194 0 11.32 3.125 3.125 8.194 3.125 11.32 0l18.34-18.35v52.69 0c0 4.418 3.581 8 8 8 4.418 0 8-3.582 8-8v-52.69l18.34 18.35v0c3.125 3.125 8.194 3.125 11.32 0 3.125-3.126 3.125-8.195 0-11.32ZM232 120h-52.69l18.35-18.34v0c3.125-3.126 3.125-8.195 0-11.32 -3.126-3.126-8.195-3.126-11.32-.001l-32 32v0c-3.126 3.122-3.129 8.187-.007 11.313 .002.002.004.004.006.006l32 32v0c3.125 3.125 8.194 3.125 11.32 0 3.125-3.126 3.125-8.195 0-11.32l-18.35-18.34h52.69v0c4.418 0 8-3.582 8-8 0-4.419-3.582-8-8-8Zm-130.34 2.34l-32-32v0c-3.126-3.126-8.195-3.126-11.32 0 -3.126 3.125-3.126 8.194-.001 11.32L76.689 120h-52.69v0c-4.419 0-8 3.581-8 8 0 4.418 3.581 8 8 8h52.69l-18.35 18.34h-.001c-3.126 3.125-3.126 8.194 0 11.32 3.125 3.125 8.194 3.125 11.32 0l32-32h0c3.125-3.123 3.128-8.188.006-11.314 -.003-.003-.005-.005-.007-.007Z"/>
</svg>