
<svg viewBox="0 0 256 256" xmlns="http://www.w3.org/2000/svg">
    <path d="M221.8 175.94c-5.55-9.56-13.8-36.61-13.8-71.94v0c0-44.183-35.818-80-80-80 -44.183 0-80 35.817-80 80 0 35.34-8.26 62.38-13.81 71.94v0c-4.452 7.633-1.872 17.43 5.761 21.881 2.443 1.424 5.22 2.176 8.048 2.178h40.81v0c4.423 21.644 25.554 35.604 47.198 31.181 15.701-3.209 27.972-15.48 31.181-31.182h40.81v0c8.836-.012 15.99-7.186 15.978-16.022 -.004-2.825-.756-5.599-2.179-8.039ZM128 216v0c-10.169-.004-19.231-6.414-22.62-16h45.24v0c-3.39 9.586-12.452 15.996-22.62 16Zm-80-32c7.7-13.24 16-43.92 16-80v0c0-35.347 28.653-64 64-64 35.346 0 64 28.653 64 64 0 36.05 8.28 66.73 16 80Z"/>
</svg>