
<svg viewBox="0 0 256 256" xmlns="http://www.w3.org/2000/svg">
    <path d="M53.92 34.62v0c-2.933-3.306-7.989-3.608-11.294-.676 -3.306 2.932-3.608 7.988-.676 11.293 .042.047.085.095.129.141l16.74 18.42 0-.001c-7.11 12.202-10.844 26.077-10.82 40.2 0 35.34-8.26 62.38-13.81 71.94v0c-4.452 7.633-1.872 17.43 5.761 21.881 2.443 1.424 5.22 2.176 8.048 2.178h134.64l19.44 21.38v-.001c2.932 3.305 7.988 3.607 11.293.675 3.305-2.933 3.607-7.989.675-11.294 -.043-.048-.086-.096-.13-.142ZM48 184c7.7-13.24 16-43.92 16-80h-.001c-.015-9.56 2.125-19.001 6.26-27.62L168.089 184Zm120 40v0c0 4.418-3.582 8-8 8H96v0c-4.419 0-8-3.582-8-8 0-4.419 3.581-8 8-8h64v0c4.418 0 8 3.581 8 8Zm46-44.75v-.001c-.935.362-1.928.548-2.93.55v0c-3.289-.004-6.24-2.019-7.44-5.08 -7.28-18.53-11.63-44.97-11.63-70.72v0c.01-35.347-28.636-64.009-63.982-64.019 -11.073-.004-21.957 2.866-31.589 8.328v0c-3.885 2.104-8.741.662-10.846-3.223 -2.046-3.776-.746-8.493 2.945-10.688h0c38.43-21.799 87.256-8.316 109.055 30.115 6.828 12.039 10.417 25.643 10.414 39.484 0 35.35 8.05 58.59 10.52 64.88v0c1.614 4.111-.409 8.754-4.52 10.37Z"/>
</svg>