
<svg viewBox="0 0 256 256" xmlns="http://www.w3.org/2000/svg">
    <path d="M192 24H96v0c-8.837 0-16 7.163-16 16v16H64v0c-8.837 0-16 7.163-16 16v152h0c-.001 4.418 3.581 8 7.999 8 1.667 0 3.293-.521 4.65-1.491l51.35-36.68 51.36 36.68v0c3.599 2.562 8.594 1.722 11.156-1.877 .963-1.353 1.481-2.973 1.483-4.634v-39.31l19.35 13.82v0c3.595 2.568 8.591 1.735 11.159-1.86 .969-1.357 1.49-2.983 1.49-4.651v-152 0c0-8.837-7.164-16-16-16Zm-32 184.46l-43.36-31v0c-2.782-1.987-6.519-1.987-9.3 0L64 208.45V72h96Zm32-32L176 165V72v0c0-8.837-7.164-16-16-16H96V40h96Z"/>
</svg>