
<svg viewBox="0 0 256 256" xmlns="http://www.w3.org/2000/svg">
    <path d="M232 48h-72v0c-12.591 0-24.446 5.927-32 16v-.001c-7.555-10.073-19.41-16-32-16H24v0c-4.419 0-8 3.581-8 8v144 0c0 4.418 3.581 8 8 8h72v0c13.254 0 24 10.745 24 24v0c0 4.418 3.581 8 8 8 4.418 0 8-3.582 8-8v0c0-13.255 10.745-24 24-24h72v0c4.418 0 8-3.582 8-8v-144 0c0-4.419-3.582-8-8-8ZM96 192H32V64h64v0c13.254 0 24 10.745 24 24v112 0c-6.918-5.206-15.343-8.014-24-8Zm128 0h-64 0c-8.658-.014-17.083 2.794-24 8V88v0c0-13.255 10.745-24 24-24h64Z"/>
</svg>