
<svg viewBox="0 0 256 256" xmlns="http://www.w3.org/2000/svg">
    <path d="M248 124v0c-.022-21.628-12.472-41.317-32-50.61V72v0c-.024-26.51-21.534-47.981-48.043-47.958 -16.074.014-31.073 8.072-39.958 21.467v0c-14.654-22.092-44.442-28.121-66.533-13.468 -13.395 8.884-21.453 23.883-21.468 39.957v1.39h-.001C12.051 86.638.138 120.034 13.389 147.98c5.534 11.672 14.934 21.072 26.607 26.607v1.41h0c.023 26.509 21.533 47.98 48.042 47.957 16.073-.015 31.072-8.073 39.957-21.468l0 0c14.653 22.091 44.441 28.12 66.532 13.467 13.394-8.885 21.452-23.884 21.467-39.958v-1.41 0c19.525-9.287 31.975-28.969 32-50.59ZM88 208v0c-16.34-.003-30.054-12.315-31.81-28.56h0c2.587.369 5.196.556 7.81.56h8v0c4.418 0 8-3.582 8-8 0-4.419-3.582-8-8-8h-8v0c-22.092.025-40.021-17.862-40.047-39.954 -.02-16.988 10.692-32.136 26.716-37.777v0c3.194-1.131 5.329-4.152 5.33-7.54v-6.73 0c0-17.674 14.326-32 32-32 17.673 0 32 14.326 32 32v68.26h0c-8.785-7.902-20.185-12.269-32-12.26v0c-4.419 0-8 3.581-8 8 0 4.418 3.581 8 8 8v0c17.673 0 32 14.326 32 32 0 17.673-14.327 32-32 32Zm104-44h-8v0c-4.419 0-8 3.581-8 8 0 4.418 3.581 8 8 8h8v0c2.613-.004 5.222-.191 7.81-.56v0c-1.9 17.57-17.684 30.274-35.255 28.374 -17.571-1.9-30.275-17.684-28.375-35.255 1.756-16.249 15.475-28.563 31.819-28.56v0c4.418 0 8-3.582 8-8 0-4.419-3.582-8-8-8v-.001c-11.816-.009-23.216 4.358-32 12.26v-68.26 0c0-17.674 14.326-32 32-32 17.673 0 32 14.326 32 32v6.73 0c0 3.388 2.135 6.409 5.33 7.54l-.001-.001c20.837 7.336 31.782 30.175 24.446 51.013 -5.642 16.023-20.789 26.736-37.777 26.716Zm16-52v0c0 4.418-3.582 8-8 8h-4v0c-19.883 0-36-16.118-36-36v-4 0c0-4.419 3.581-8 8-8 4.418 0 8 3.581 8 8v4 0c0 11.045 8.954 20 20 20h4v0c4.418 0 8 3.581 8 8Zm-148 8h-4v0c-4.419 0-8-3.582-8-8 0-4.419 3.581-8 8-8h4v0c11.045 0 20-8.955 20-20v-4 0c0-4.419 3.581-8 8-8 4.418 0 8 3.581 8 8v4 0c0 19.882-16.118 36-36 36Z"/>
</svg>