
<svg viewBox="0 0 256 256" xmlns="http://www.w3.org/2000/svg">
    <path d="M144 92v0c0-6.628 5.372-12 12-12 6.627 0 12 5.372 12 12 0 6.627-5.373 12-12 12v0c-6.628 0-12-5.373-12-12Zm-44-12v0c-6.628 0-12 5.372-12 12 0 6.627 5.372 12 12 12 6.627 0 12-5.373 12-12v0c0-6.628-5.373-12-12-12Zm116 64v0c.022 7.765-.987 15.499-3 23l22.24 9.72v0c4.02 1.831 5.795 6.575 3.964 10.596 -1.289 2.827-4.098 4.654-7.205 4.683v0c-1.102.002-2.192-.226-3.2-.67l-21.42-9.33v0c-20.979 43.84-73.525 62.373-117.365 41.395 -18.119-8.67-32.726-23.278-41.396-41.396l-21.42 9.33h0c-1.009.444-2.099.672-3.2.67v-.001c-4.419-.003-7.998-3.587-7.996-8.005 .001-3.178 1.883-6.053 4.795-7.326l22.2-9.67h0c-2.014-7.501-3.023-15.235-3-23v-8h-24v0c-4.419 0-8-3.582-8-8 0-4.419 3.581-8 8-8h24v-8h0c-.023-7.766.986-15.5 3-23l-22.2-9.67h-.001c-4.088-1.679-6.041-6.352-4.363-10.439 1.678-4.088 6.351-6.041 10.438-4.363 .108.044.216.091.323.141l21.42 9.33v-.001c20.978-43.841 73.524-62.374 117.364-41.396 18.118 8.669 32.725 23.277 41.395 41.395l21.42-9.36v0c4.087-1.679 8.76.274 10.438 4.362 1.625 3.96-.155 8.498-4.039 10.297l-22.2 9.75v0c2.013 7.5 3.022 15.234 3 23v8h24v0c4.418 0 8 3.581 8 8 0 4.418-3.582 8-8 8h-24ZM56 120h144v-8 0c0-39.765-32.236-72-72-72 -39.765-.001-72 32.235-72 72Zm64 95.54V136H56v8 -.001c.043 36.649 27.581 67.431 64 71.54ZM200 144v-8h-64v79.54 0c36.418-4.109 63.956-34.891 64-71.54Z"/>
</svg>