
<svg viewBox="0 0 256 256" xmlns="http://www.w3.org/2000/svg">
    <path d="M128 24v0C70.562 24 24 70.562 24 128c0 57.437 46.562 104 104 104 57.437 0 104-46.563 104-104v0c-.061-57.413-46.588-103.94-104-104Zm0 192v0c-48.602 0-88-39.399-88-88 0-48.602 39.398-88 88-88 48.601 0 88 39.398 88 88v0c-.056 48.578-39.422 87.944-88 88Zm45.66-77.66v0c3.125 3.125 3.125 8.194-.001 11.32 -3.126 3.125-8.195 3.125-11.32 0l-34.34-34.35 -34.34 34.35h-.001c-3.126 3.125-8.195 3.125-11.32 0 -3.126-3.126-3.126-8.195-.001-11.32l40-40v0c3.122-3.126 8.187-3.129 11.313-.007 .002.002.004.004.006.006Z"/>
</svg>