
<svg viewBox="0 0 256 256" xmlns="http://www.w3.org/2000/svg">
    <path d="M132 24v0c-55.204.06-99.94 44.796-100 100v84 0c0 8.836 7.163 16 16 16h84v0c55.228 0 100-44.772 100-100 0-55.229-44.772-100-100-100Zm0 184H48v-84 0c0-46.392 37.608-84 84-84 46.391 0 84 37.608 84 84 0 46.391-37.609 84-84 84Zm12-80v0c0 6.627-5.373 12-12 12 -6.628 0-12-5.373-12-12 0-6.628 5.372-12 12-12v0c6.627 0 12 5.372 12 12Zm-44 0v0c0 6.627-5.373 12-12 12 -6.628 0-12-5.373-12-12 0-6.628 5.372-12 12-12v0c6.627 0 12 5.372 12 12Zm88 0v0c0 6.627-5.373 12-12 12 -6.628 0-12-5.373-12-12 0-6.628 5.372-12 12-12v0c6.627 0 12 5.372 12 12Z"/>
</svg>