
<svg viewBox="0 0 256 256" xmlns="http://www.w3.org/2000/svg">
    <path d="M116 128v0c0-6.628 5.372-12 12-12 6.627 0 12 5.372 12 12 0 6.627-5.373 12-12 12v0c-6.628 0-12-5.373-12-12Zm-32 12v0c6.627 0 12-5.373 12-12 0-6.628-5.373-12-12-12 -6.628 0-12 5.372-12 12v0c0 6.627 5.372 12 12 12Zm88 0v0c6.627 0 12-5.373 12-12 0-6.628-5.373-12-12-12 -6.628 0-12 5.372-12 12v0c0 6.627 5.372 12 12 12Zm60-76v128 0c0 8.836-7.164 16-16 16H83l-32.6 28.16 -.09.07v0c-2.88 2.441-6.535 3.778-10.31 3.77v0c-2.351-.006-4.672-.524-6.8-1.52h-.001c-5.64-2.607-9.237-8.268-9.2-14.48V64v0c0-8.837 7.163-16 16-16h176v0c8.836 0 16 7.163 16 16ZM40 224v0ZM216 64H40v160l34.77-30v0c1.445-1.275 3.302-1.986 5.23-2h136Z"/>
</svg>