
<svg viewBox="0 0 256 256" xmlns="http://www.w3.org/2000/svg">
    <path d="M53.92 34.62v0c-2.933-3.306-7.989-3.608-11.294-.676 -3.306 2.932-3.608 7.988-.676 11.293 .042.047.085.095.129.141l2.38 2.62h-4.46v0c-8.837 0-16 7.163-16 16v160 0c-.037 6.229 3.578 11.902 9.24 14.5v0c2.118.983 4.424 1.495 6.76 1.5v0c3.758-.011 7.392-1.35 10.26-3.78l.08-.07 32.66-28.15h106.92l12.16 13.38v0c2.932 3.305 7.988 3.607 11.293.675 3.305-2.933 3.607-7.989.675-11.294 -.043-.048-.086-.096-.13-.142ZM80 192v0c-1.921.001-3.778.693-5.23 1.95L40 224V64h19l116.37 128ZM232 64v122 0c0 4.418-3.582 8-8 8 -4.419 0-8-3.582-8-8V64H105.79v0c-4.419 0-8-3.582-8-8 0-4.419 3.581-8 8-8H216v0c8.836 0 16 7.163 16 16Z"/>
</svg>