
<svg viewBox="0 0 256 256" xmlns="http://www.w3.org/2000/svg">
    <path d="M216 48H40v0c-8.837 0-16 7.163-16 16v160 0c-.037 6.229 3.578 11.902 9.24 14.5v0c2.118.983 4.424 1.495 6.76 1.5v0c3.756-.009 7.387-1.349 10.25-3.78l.09-.07L83 208h133v0c8.836 0 16-7.164 16-16V64v-.001c0-8.837-7.164-16-16-16ZM40 224v0Zm176-32H80v0c-1.921.001-3.778.693-5.23 1.95L40 224V64h176ZM88 112v0c0-4.419 3.581-8 8-8h64v0c4.418 0 8 3.581 8 8 0 4.418-3.582 8-8 8H96v0c-4.419 0-8-3.582-8-8Zm0 32v0c0-4.419 3.581-8 8-8h64v0c4.418 0 8 3.581 8 8 0 4.418-3.582 8-8 8H96v0c-4.419 0-8-3.582-8-8Z"/>
</svg>