
<svg viewBox="0 0 256 256" xmlns="http://www.w3.org/2000/svg">
    <path d="M128 24v0C70.562 24 24 70.562 24 128c0 57.437 46.562 104 104 104 57.437 0 104-46.563 104-104v0c-.061-57.413-46.588-103.94-104-104Zm0 192v0c-48.602 0-88-39.399-88-88 0-48.602 39.398-88 88-88 48.601 0 88 39.398 88 88v0c-.056 48.578-39.422 87.944-88 88Zm44.42-143.16l-64 32v0c-1.548.777-2.803 2.032-3.58 3.58l-32 64v0c-1.978 3.951-.377 8.757 3.574 10.734 1.113.557 2.34.846 3.585.845v-.001c1.241-.002 2.466-.29 3.58-.84l64-32v0c1.547-.778 2.802-2.033 3.58-3.58l32-64v0c1.983-3.949.39-8.757-3.558-10.74 -2.26-1.136-4.924-1.136-7.183 0ZM138 138l-40.11 20.11L118 118l40.15-20.07Z"/>
</svg>