
<svg viewBox="0 0 256 256" xmlns="http://www.w3.org/2000/svg">
    <path d="M221.28 34.75v0c-24.992-24.981-65.499-24.981-90.49 0L60.69 104h-.001c-3.011 2.992-4.7 7.065-4.69 11.31v73.38l-29.66 29.65h-.001c-3.126 3.125-3.126 8.194 0 11.32 3.125 3.125 8.194 3.125 11.32 0L67.318 200h73.38v0c4.239.006 8.306-1.678 11.3-4.68v0l69.23-70v0c25.024-24.964 25.073-65.486.11-90.51 -.021-.021-.041-.041-.061-.061Zm-79.21 11.31v0c18.741-18.75 49.132-18.756 67.882-.015 18.02 18.012 18.827 46.966 1.837 65.954h-56.46l34.35-34.34v0c3.125-3.126 3.125-8.195 0-11.32 -3.126-3.126-8.195-3.126-11.32 0l-58.36 58.35v-56.82ZM72 115.35l32-31.67v57l-32 32ZM140.7 184H83.32l56-56h56.74Z"/>
</svg>