
<svg viewBox="0 0 256 256" xmlns="http://www.w3.org/2000/svg">
    <path d="M181.66 146.34v0c3.125 3.122 3.128 8.187.006 11.313 -.003.002-.005.004-.007.006l-24 24v0c-3.126 3.125-8.195 3.125-11.32 0 -3.126-3.126-3.126-8.195 0-11.32l18.35-18.34 -18.35-18.34v0c-3.126-3.126-3.126-8.195 0-11.32 3.125-3.126 8.194-3.126 11.32-.001Zm-72-24v0c-3.123-3.126-8.188-3.129-11.314-.007 -.003.002-.005.004-.007.006l-24 24v0c-3.126 3.122-3.129 8.187-.007 11.313 .002.002.004.004.006.006l24 24h0c3.125 3.125 8.194 3.125 11.32 0 3.125-3.126 3.125-8.195-.001-11.32l-18.35-18.34 18.35-18.34v0c3.125-3.123 3.128-8.188.006-11.314 -.003-.003-.005-.005-.007-.007ZM216 88v128 0c0 8.836-7.164 16-16 16H56v0c-8.837 0-16-7.164-16-16V40v0c0-8.837 7.163-16 16-16h96v0c2.122-.002 4.158.84 5.66 2.34l56 56 -.001 0c1.499 1.501 2.341 3.537 2.34 5.66Zm-56-8h28.69L160 51.31Zm40 136V96h-48v0c-4.419 0-8-3.582-8-8V40H56v176h144Z"/>
</svg>