
<svg viewBox="0 0 256 256" xmlns="http://www.w3.org/2000/svg">
    <path d="M213.66 66.34l-40-40v0c-1.502-1.5-3.538-2.342-5.66-2.34H88v0c-8.837 0-16 7.163-16 16v16H56v0c-8.837 0-16 7.163-16 16v144 0c0 8.836 7.163 16 16 16h112v0c8.836 0 16-7.164 16-16v-16h16v0c8.836 0 16-7.164 16-16V72h-.001c.001-2.123-.841-4.159-2.34-5.66ZM168 216H56V72h76.69L168 107.31v84.53c0 .06 0 .11 0 .16s0 .1 0 .16V216Zm32-32h-16v-80h-.001c.001-2.123-.841-4.159-2.34-5.66l-40-40v0c-1.502-1.5-3.538-2.342-5.66-2.34h-48V40h76.69l35.31 35.31Zm-56-32v0c0 4.418-3.582 8-8 8H88v0c-4.419 0-8-3.582-8-8 0-4.419 3.581-8 8-8h48v0c4.418 0 8 3.581 8 8Zm0 32v0c0 4.418-3.582 8-8 8H88v0c-4.419 0-8-3.582-8-8 0-4.419 3.581-8 8-8h48v0c4.418 0 8 3.581 8 8Z"/>
</svg>