
<svg viewBox="0 0 256 256" xmlns="http://www.w3.org/2000/svg">
    <path d="M110.66 147.56v0c-2.448-3.679-7.414-4.676-11.093-2.228 -.883.587-1.641 1.344-2.228 2.227l-20.85 31.29 -9.76-15.18v0c-2.389-3.717-7.339-4.794-11.056-2.405 -.965.619-1.785 1.44-2.405 2.404l-36 56v0c-2.392 3.715-1.319 8.665 2.396 11.056 1.292.831 2.796 1.273 4.333 1.273h128v0c4.418.002 8.002-3.577 8.005-7.995 .001-1.583-.468-3.13-1.346-4.446ZM38.65 216L60 182.79l9.63 15h-.001c2.387 3.717 7.337 4.795 11.054 2.407 .928-.597 1.723-1.379 2.335-2.298l21-31.47 33.03 49.57Zm175-133.66l-56-56v0c-1.5-1.498-3.532-2.34-5.65-2.34H56v0c-8.837 0-16 7.163-16 16v88 0c0 4.418 3.581 8 8 8 4.418 0 8-3.582 8-8V40h88v48 0c0 4.418 3.581 8 8 8h48v120h-8v0c-4.419 0-8 3.581-8 8 0 4.418 3.581 8 8 8h8v0c8.836 0 16-7.164 16-16V88v0c.001-2.123-.841-4.159-2.34-5.66ZM160 51.31L188.69 80H160Z"/>
</svg>