
<svg viewBox="0 0 256 256" xmlns="http://www.w3.org/2000/svg">
    <path d="M213.66 82.34l-56-56v0c-1.502-1.5-3.538-2.342-5.66-2.34H56v0c-8.837 0-16 7.163-16 16v176 0c0 8.836 7.163 16 16 16h144v0c8.836 0 16-7.164 16-16V88h-.001c.001-2.123-.841-4.159-2.34-5.66ZM160 51.31L188.69 80H160ZM200 216H56V40h88v48 0c0 4.418 3.581 8 8 8h48v120Zm-42.34-61.66v0c3.125 3.122 3.128 8.187.006 11.313 -.003.002-.005.004-.007.006l-24 24v0c-3.123 3.125-8.188 3.128-11.314.006 -.003-.003-.005-.005-.007-.007l-24-24h0c-3.126-3.126-3.126-8.195-.001-11.32 3.125-3.126 8.194-3.126 11.32 0l10.34 10.35v-44.69 0c0-4.419 3.581-8 8-8 4.418 0 8 3.581 8 8v44.69l10.34-10.35v0c3.122-3.126 8.187-3.129 11.313-.007 .002.002.004.004.006.006Z"/>
</svg>