
<svg viewBox="0 0 256 256" xmlns="http://www.w3.org/2000/svg">
    <path d="M80 224v0c0 4.418-3.582 8-8 8H56v0c-8.837 0-16-7.164-16-16v-32 0c0-4.419 3.581-8 8-8 4.418 0 8 3.581 8 8v32h16v0c4.418 0 8 3.581 8 8ZM216 88v48 0c0 4.418-3.582 8-8 8 -4.419 0-8-3.582-8-8V96h-48v0c-4.419 0-8-3.582-8-8V40h-24v0c-4.419 0-8-3.582-8-8 0-4.419 3.581-8 8-8h32v0c2.122-.002 4.158.84 5.66 2.34l56 56 -.001 0c1.499 1.501 2.341 3.537 2.34 5.66Zm-56-8h28.69L160 51.31ZM80 24H56v0c-8.837 0-16 7.163-16 16v24 0c0 4.418 3.581 8 8 8 4.418 0 8-3.582 8-8V40h24v0c4.418 0 8-3.582 8-8 0-4.419-3.582-8-8-8Zm128 144v0c-4.419 0-8 3.581-8 8v40h-8v0c-4.419 0-8 3.581-8 8 0 4.418 3.581 8 8 8h8v0c8.836 0 16-7.164 16-16v-40 0c0-4.419-3.582-8-8-8ZM48 152v0c4.418 0 8-3.582 8-8v-40 0c0-4.419-3.582-8-8-8 -4.419 0-8 3.581-8 8v40 0c0 4.418 3.581 8 8 8Zm104 64h-40v0c-4.419 0-8 3.581-8 8 0 4.418 3.581 8 8 8h40v0c4.418 0 8-3.582 8-8 0-4.419-3.582-8-8-8Z"/>
</svg>