
<svg viewBox="0 0 256 256" xmlns="http://www.w3.org/2000/svg">
    <path d="M213.66 82.34l-56-56v0c-1.502-1.5-3.538-2.342-5.66-2.34H56v0c-8.837 0-16 7.163-16 16v176 0c0 8.836 7.163 16 16 16h144v0c8.836 0 16-7.164 16-16V88h-.001c.001-2.123-.841-4.159-2.34-5.66ZM160 51.31L188.69 80H160ZM200 216h-88v-16h8v0c4.418 0 8-3.582 8-8 0-4.419-3.582-8-8-8h-8v-16h8v0c4.418 0 8-3.582 8-8 0-4.419-3.582-8-8-8h-8v-16h8v0c4.418 0 8-3.582 8-8 0-4.419-3.582-8-8-8h-8v-8 0c0-4.419-3.582-8-8-8 -4.419 0-8 3.581-8 8v8h-8v0c-4.419 0-8 3.581-8 8 0 4.418 3.581 8 8 8h8v16h-8v0c-4.419 0-8 3.581-8 8 0 4.418 3.581 8 8 8h8v16h-8v0c-4.419 0-8 3.581-8 8 0 4.418 3.581 8 8 8h8v16H56V40h88v48 0c0 4.418 3.581 8 8 8h48v120Z"/>
</svg>