
<svg viewBox="0 0 256 256" xmlns="http://www.w3.org/2000/svg">
    <path d="M213.66 82.34l-56-56v0c-1.502-1.5-3.538-2.342-5.66-2.34H56v0c-8.837 0-16 7.163-16 16v72 0c0 4.418 3.581 8 8 8 4.418 0 8-3.582 8-8V40h88v48 0c0 4.418 3.581 8 8 8h48v120h-8v0c-4.419 0-8 3.581-8 8 0 4.418 3.581 8 8 8h8v0c8.836 0 16-7.164 16-16V88h-.001c.001-2.123-.841-4.159-2.34-5.66ZM160 51.31L188.69 80H160ZM155.88 145v0c-2.546-1.409-5.655-1.325-8.12.22l-19.95 12.46h-.001c-1.151-7.849-7.878-13.67-15.81-13.68h-64v0c-8.837 0-16 7.163-16 16v48 0c0 8.836 7.163 16 16 16h64v0c7.932-.011 14.659-5.832 15.81-13.68l19.95 12.46v-.001c3.746 2.341 8.682 1.202 11.023-2.544 .793-1.271 1.215-2.739 1.216-4.237v-64h-.001c.001-2.909-1.577-5.59-4.12-7ZM112 208H48v-48h64v48Zm32-6.43l-16-10v-15.14l16-10Z"/>
</svg>