
<svg viewBox="0 0 256 256" xmlns="http://www.w3.org/2000/svg">
    <path d="M213.66 82.34l-56-56v0c-1.502-1.5-3.538-2.342-5.66-2.34H56v0c-8.837 0-16 7.163-16 16v72 0c0 4.418 3.581 8 8 8 4.418 0 8-3.582 8-8V40h88v48 0c0 4.418 3.581 8 8 8h48v128 0c0 4.418 3.581 8 8 8 4.418 0 8-3.582 8-8V88h-.001c.001-2.123-.841-4.159-2.34-5.66ZM160 51.31L188.69 80H160ZM144 144h-16v0c-4.419 0-8 3.581-8 8v56 0c0 4.418 3.581 8 8 8h16v0c19.882 0 36-16.118 36-36 0-19.883-16.118-36-36-36Zm0 56h-8v-40h8v0c11.045 0 20 8.954 20 20 0 11.045-8.955 20-20 20Zm-40-48v56 0c0 4.418-3.582 8-8 8 -4.419 0-8-3.582-8-8v-30.62l-13.45 19.21v0c-2.537 3.617-7.526 4.493-11.144 1.956 -.761-.534-1.424-1.196-1.957-1.957l-13.45-19.21v30.62 0c0 4.418-3.582 8-8 8 -4.419 0-8-3.582-8-8v-56 0c.001-4.419 3.584-7.999 8.003-7.997 2.607.001 5.049 1.272 6.546 3.406l21.45 30.64 21.45-30.64v0c2.536-3.618 7.525-4.494 11.143-1.957 2.134 1.496 3.405 3.939 3.406 6.546Z"/>
</svg>