
<svg viewBox="0 0 256 256" xmlns="http://www.w3.org/2000/svg">
    <path d="M72 128v0c.057 20.984-4.792 41.692-14.16 60.47h0c-1.845 4.014-6.594 5.774-10.609 3.93 -4.015-1.845-5.775-6.594-3.931-10.609 .068-.15.141-.297.219-.442h-.001c8.26-16.569 12.533-34.838 12.48-53.35v-.001c-.039-21.87 9.903-42.563 27-56.2v0c3.449-2.762 8.483-2.205 11.245 1.245 2.761 3.449 2.204 8.483-1.245 11.245v0c-13.301 10.604-21.034 26.699-21 43.71Zm56-8v0c-4.419 0-8 3.581-8 8h-.001c-.002 31.167-7.916 61.825-23 89.1v0c-2.143 3.865-.746 8.737 3.12 10.88 3.865 2.142 8.737.745 10.88-3.12l0 0c16.395-29.651 24.997-62.978 25-96.86h-.001c0-4.419-3.582-8-8-8Zm0-32v0c-22.092 0-40 17.908-40 40v0c0 4.418 3.581 8 8 8 4.418 0 8-3.582 8-8v0c0-13.255 10.745-24 24-24 13.254 0 24 10.745 24 24v0c.082 31.809-6.924 63.237-20.51 92v0c-1.887 4.006-.167 8.783 3.839 10.67 4.006 1.886 8.783.166 10.67-3.84 0-.001 0-.001 0-.001l0 0c14.583-30.901 22.098-64.662 22-98.83v0c0-22.092-17.909-40-40-40Zm0-64v0c-57.413.06-103.94 46.587-104 104l0-.001c.014 9.989-1.677 19.909-5 29.33l-.001 0c-1.472 4.166.713 8.738 4.88 10.21 4.166 1.471 8.738-.714 10.21-4.88h0c3.924-11.134 5.923-22.855 5.91-34.66h-.001c0-48.602 39.398-88 88-88 48.601 0 88 39.398 88 88h0c.003 18.278-1.768 36.514-5.29 54.45v0c-.857 4.334 1.962 8.542 6.296 9.399 .001 0 .002 0 .003 0v0c.51.098 1.029.149 1.55.15v0c3.817-.005 7.1-2.705 7.84-6.45h0c3.725-18.957 5.6-38.231 5.6-57.55v-.001c-.067-57.411-46.59-103.934-104-104ZM94.4 152.17v0c-4.32-.86-8.522 1.934-9.4 6.25h0c-3.247 15.976-9.058 31.321-17.21 45.44h-.001c-2.21 3.827-.898 8.72 2.93 10.93 3.827 2.209 8.72.897 10.93-2.93v0c9.008-15.613 15.425-32.583 19-50.25v0c.883-4.33-1.911-8.555-6.24-9.438 -.004-.001-.008-.002-.011-.003ZM128 56v0c-3.009 0-6.015.187-9 .56v0c-4.37.655-7.38 4.729-6.724 9.099 .634 4.223 4.474 7.204 8.723 6.77v-.001c30.735-3.822 58.749 17.995 62.571 48.731 .282 2.268.425 4.552.428 6.838h0c-.003 10.362-.644 20.715-1.92 31h-.001c-.588 4.379 2.486 8.405 6.865 8.992 .018.002.036.004.054.007h0c.331.039.665.059 1 .06v0c4.025-.009 7.416-3.007 7.92-7h-.001c1.349-10.949 2.016-21.97 2-33v0c-.011-39.739-32.182-71.972-71.92-72.06Zm57.93 128.25v0c-4.278-1.107-8.642 1.464-9.749 5.742 -.001.002-.002.005-.002.007 -1.46 5.69-3.15 11.4-5 17v0c-1.41 4.177.826 8.708 5 10.13v-.001c.821.279 1.682.421 2.55.42v0c3.437-.003 6.488-2.201 7.58-5.46 2-5.92 3.79-12 5.35-18.05v0c1.125-4.273-1.426-8.649-5.698-9.775 -.008-.002-.015-.004-.023-.006Z"/>
</svg>