
<svg viewBox="0 0 256 256" xmlns="http://www.w3.org/2000/svg">
    <path d="M216 56h-40v-8 0c0-13.255-10.746-24-24-24h-48v0c-13.255 0-24 10.745-24 24v8H40v0c-8.837 0-16 7.163-16 16v128 0c0 8.836 7.163 16 16 16h176v0c8.836 0 16-7.164 16-16V72v0c0-8.837-7.164-16-16-16ZM96 48v0c0-4.419 3.581-8 8-8h48v0c4.418 0 8 3.581 8 8v8H96Zm120 152H40V72h176v128Zm-56-64v0c0 4.418-3.582 8-8 8h-16v16 0c0 4.418-3.582 8-8 8 -4.419 0-8-3.582-8-8v-16h-16v0c-4.419 0-8-3.582-8-8 0-4.419 3.581-8 8-8h16v-16 0c0-4.419 3.581-8 8-8 4.418 0 8 3.581 8 8v16h16v0c4.418 0 8 3.581 8 8Z"/>
</svg>