
<svg viewBox="0 0 256 256" xmlns="http://www.w3.org/2000/svg">
    <path d="M128 24v0 0C70.562 24 24 70.562 24 128c0 57.437 46.562 104 104 104 57.437 0 104-46.563 104-104v0c-.067-57.411-46.59-103.934-104-104Zm88 104v0c.006 8.115-1.114 16.192-3.33 24h-38.51v0c2.453-15.906 2.453-32.095 0-48h38.51l-.001 0c2.216 7.807 3.336 15.884 3.33 24Zm-114 40h52v0c-5.123 16.785-14.017 32.178-26 45h-.001c-11.98-12.826-20.872-28.217-26-45Zm-3.9-16v0c-2.747-15.883-2.747-32.118-.001-48h59.88v0c2.746 15.882 2.746 32.117 0 48ZM40 128h-.001c-.007-8.116 1.113-16.193 3.33-24h38.51v-.001c-2.454 15.905-2.454 32.094 0 48h-38.51 -.001c-2.217-7.808-3.337-15.885-3.33-24Zm114-40h-52v0c5.122-16.786 14.016-32.179 26-45l-.001 0c11.979 12.825 20.871 28.216 26 45Zm52.33 0h-35.62v0c-4.49-16.471-12.056-31.944-22.3-45.6v0c25.047 6.016 46.217 22.672 57.96 45.6Zm-98.74-45.6l-.001-.001c-10.245 13.656-17.811 29.129-22.3 45.6h-35.66 0c11.742-22.928 32.912-39.584 57.96-45.6ZM49.63 168h35.66 -.001c4.489 16.47 12.055 31.943 22.3 45.6v0c-25.048-6.017-46.218-22.673-57.96-45.6Zm98.78 45.6h0c10.244-13.657 17.81-29.13 22.3-45.6h35.66 0c-11.743 22.927-32.913 39.583-57.96 45.6Z"/>
</svg>