
<svg viewBox="0 0 256 256" xmlns="http://www.w3.org/2000/svg">
    <path d="M128 24v0C70.562 24 24 70.562 24 128c0 57.437 46.562 104 104 104 57.437 0 104-46.563 104-104v0c-.061-57.413-46.588-103.94-104-104Zm0 16v0c29.755.012 57.489 15.06 73.72 40H128v0c-20.724.023-39.101 13.322-45.6 33L59.32 73v0C76.007 52.132 101.28 39.988 128 40Zm32 88v0c0 17.673-14.327 32-32 32 -17.674 0-32-14.327-32-32 0-17.674 14.326-32 32-32v0c17.673 0 32 14.326 32 32Zm-120 0l-.001 0c-.017-13.857 3.26-27.519 9.56-39.86L86.429 152c.06.1.13.19.19.28v-.001c10.42 17.778 31.025 26.922 51.2 22.72l-23.1 40 0 0c-42.948-6.617-74.665-43.547-74.72-87Zm92.69 87.87L169.57 152c.08-.14.14-.28.22-.42h0c10.145-17.893 7.73-40.266-6-55.58H210v0c17.67 45.274-4.708 96.302-49.983 113.972 -8.731 3.407-17.949 5.398-27.308 5.897Z"/>
</svg>