
<svg viewBox="0 0 256 256" xmlns="http://www.w3.org/2000/svg">
    <path d="M24 104v0c0-4.419 3.581-8 8-8h80v0c4.418 0 8 3.581 8 8 0 4.418-3.582 8-8 8H32v0c-4.419 0-8-3.582-8-8Zm200-8h-80v0c-4.419 0-8 3.581-8 8 0 4.418 3.581 8 8 8h80v0c4.418 0 8-3.582 8-8 0-4.419-3.582-8-8-8ZM72 136H32v0c-4.419 0-8 3.581-8 8 0 4.418 3.581 8 8 8h40v0c4.418 0 8-3.582 8-8 0-4.419-3.582-8-8-8Zm152 0h-40v0c-4.419 0-8 3.581-8 8 0 4.418 3.581 8 8 8h40v0c4.418 0 8-3.582 8-8 0-4.419-3.582-8-8-8Zm-128 8v0c0 4.418 3.581 8 8 8h48v0c4.418 0 8-3.582 8-8 0-4.419-3.582-8-8-8h-48v0c-4.419 0-8 3.581-8 8Zm-40 32H32v0c-4.419 0-8 3.581-8 8 0 4.418 3.581 8 8 8h24v0c4.418 0 8-3.582 8-8 0-4.419-3.582-8-8-8Zm56 0H88v0c-4.419 0-8 3.581-8 8 0 4.418 3.581 8 8 8h24v0c4.418 0 8-3.582 8-8 0-4.419-3.582-8-8-8Zm56 0h-24v0c-4.419 0-8 3.581-8 8 0 4.418 3.581 8 8 8h24v0c4.418 0 8-3.582 8-8 0-4.419-3.582-8-8-8Zm56 0h-24v0c-4.419 0-8 3.581-8 8 0 4.418 3.581 8 8 8h24v0c4.418 0 8-3.582 8-8 0-4.419-3.582-8-8-8ZM32 72h192v0c4.418 0 8-3.582 8-8 0-4.419-3.582-8-8-8H32v0c-4.419 0-8 3.581-8 8 0 4.418 3.581 8 8 8Z"/>
</svg>