
<svg viewBox="0 0 256 256" xmlns="http://www.w3.org/2000/svg">
    <path d="M196 88v0c-4.664-.006-9.254 1.16-13.35 3.39v0c-4.753-14.716-20.535-22.792-35.251-18.04 -1.162.375-2.297.825-3.4 1.349v-30.7 0c0-15.464-12.537-28-28-28 -15.464 0-28 12.536-28 28v80l-3.82-6.13v0c-7.768-13.38-24.911-17.928-38.29-10.16 -13.38 7.767-17.928 24.91-10.16 38.29l4.67 8.23c34.41 60.66 48.65 85.77 95.6 85.77v0c48.578-.056 87.944-39.422 88-88v-36 0c0-15.464-12.537-28-28-28Zm12 64v0c-.045 39.746-32.254 71.955-72 72 -37.63 0-47.84-18-81.68-77.68l-4.69-8.27V138v0c-3.316-5.734-1.361-13.069 4.37-16.39v-.001c1.822-1.056 3.893-1.609 6-1.6v0c4.293-.007 8.263 2.281 10.41 6v0c.04.08.087.157.14.23l18.67 30v0c2.345 3.744 7.281 4.878 11.026 2.533 2.333-1.462 3.751-4.021 3.753-6.774v-108 0c0-6.628 5.372-12 12-12 6.627 0 12 5.372 12 12v68 0c0 4.418 3.581 8 8 8 4.418 0 8-3.582 8-8v-12 0c0-6.628 5.372-12 12-12 6.627 0 12 5.372 12 12v20 0c0 4.418 3.581 8 8 8 4.418 0 8-3.582 8-8v-4 0c0-6.628 5.372-12 12-12 6.627 0 12 5.372 12 12Z"/>
</svg>