
<svg viewBox="0 0 256 256" xmlns="http://www.w3.org/2000/svg">
    <path d="M188 48v0c-4.153-.006-8.254.92-12 2.71V44h0c.005-15.464-12.526-28.005-27.99-28.011 -12.159-.005-22.931 7.838-26.661 19.41v-.001c-13.594-7.374-30.59-2.331-37.963 11.262 -2.222 4.094-3.386 8.679-3.388 13.337v64l-3.82-6.13v0c-7.754-13.38-24.885-17.942-38.265-10.189 -13.281 7.695-17.89 24.647-10.336 38.008 16 33.77 28.93 57.72 43.72 72.69 14.94 15.16 31.9 21.62 56.7 21.62h-.001c48.578-.056 87.944-39.422 88-88v-76 0c0-15.464-12.537-28-28-28Zm12 104v0c-.045 39.746-32.254 71.955-72 72 -20.38 0-33.51-4.88-45.33-16.85C69.44 193.74 57.26 171 41.9 138.58v0c-.091-.199-.191-.392-.3-.58h-.001c-3.314-5.741-1.346-13.082 4.395-16.395 5.741-3.314 13.081-1.346 16.395 4.395v0c.04.08.087.157.14.23l18.67 30h-.001c2.327 3.755 7.258 4.913 11.014 2.585 2.358-1.462 3.791-4.042 3.785-6.816v-92 0c0-6.628 5.372-12 12-12 6.627 0 12 5.372 12 12v60h0c0 4.418 3.581 8 8 8 4.418 0 8-3.582 8-8v-76 0c0-6.628 5.372-12 12-12 6.627 0 12 5.372 12 12v76 0c0 4.418 3.581 8 8 8 4.418 0 8-3.582 8-8v-44 0c0-6.628 5.372-12 12-12 6.627 0 12 5.372 12 12Z"/>
</svg>