
<svg viewBox="0 0 256 256" xmlns="http://www.w3.org/2000/svg">
    <path d="M184 104v32 0c0 4.418-3.582 8-8 8H99.31l10.35 10.34v0c3.125 3.125 3.125 8.194 0 11.32 -3.126 3.125-8.195 3.125-11.32 0l-24-24v0c-3.126-3.123-3.129-8.188-.007-11.314 .002-.003.004-.005.006-.007l24-24h0c3.125-3.126 8.194-3.126 11.32 0 3.125 3.125 3.125 8.194 0 11.32l-10.35 10.34h68.69v-24 0c0-4.419 3.581-8 8-8 4.418 0 8 3.581 8 8Zm48-48v144 0c0 8.836-7.164 16-16 16H40v0c-8.837 0-16-7.164-16-16V56v0c0-8.837 7.163-16 16-16h176v0c8.836 0 16 7.163 16 16Zm-16 144V56H40v144h176Z"/>
</svg>