
<svg viewBox="0 0 256 256" xmlns="http://www.w3.org/2000/svg">
    <path d="M216.57 39.43v0c-31.221-31.264-81.874-31.299-113.138-.079 -21.328 21.297-28.875 52.775-19.523 81.428l-55.22 55.22h-.001c-3.015 2.99-4.704 7.064-4.69 11.31v28.69 0c0 8.836 7.163 16 16 16h32v0c4.418 0 8-3.582 8-8v-16h16v0c4.418 0 8-3.582 8-8v-16h16v-.001c2.122.001 4.158-.841 5.66-2.34l9.56-9.57v0c8.001 2.602 16.365 3.922 24.78 3.91h.1v0c44.182-.054 79.956-35.915 79.902-80.097 -.026-21.185-8.453-41.494-23.433-56.474ZM224 98.1c-1.09 34.09-29.75 61.86-63.89 61.9H160v0c-8.099.013-16.126-1.517-23.65-4.51v0c-3.013-1.308-6.518-.642-8.84 1.68L116.69 168H96v0c-4.419 0-8 3.581-8 8v16H72v0c-4.419 0-8 3.581-8 8v16H40v-28.69l58.83-58.82v0c2.321-2.323 2.987-5.828 1.68-8.84h-.001c-3.003-7.551-4.534-15.605-4.51-23.73 0-34.14 27.81-62.8 61.9-63.89v0c35.326-1.179 64.92 26.503 66.099 61.829 .047 1.413.047 2.827 0 4.24ZM192 76v0c0 6.627-5.373 12-12 12 -6.628 0-12-5.373-12-12 0-6.628 5.372-12 12-12v0c6.627 0 12 5.372 12 12Z"/>
</svg>