
<svg viewBox="0 0 256 256" xmlns="http://www.w3.org/2000/svg">
    <path d="M165.66 90.34v0c3.125 3.122 3.128 8.187.006 11.313 -.003.002-.005.004-.007.006l-64 64h-.001c-3.126 3.125-8.195 3.125-11.32 0 -3.126-3.126-3.126-8.195-.001-11.32l64-64v0c3.122-3.126 8.187-3.129 11.313-.007 .002.002.004.004.006.006ZM215.6 40.4v-.001c-21.869-21.871-57.326-21.873-79.196-.005 -.002.001-.003.002-.005.004l-30.06 30.05v0c-3.126 3.125-3.126 8.194 0 11.32 3.125 3.125 8.194 3.125 11.32 0l30.06-30v0c15.793-15.447 41.118-15.166 56.565.628 15.202 15.544 15.204 40.385.004 55.931l-30.07 30.06v0c-3.126 3.123-3.129 8.189-.005 11.315 3.123 3.125 8.189 3.128 11.315.005l30.07-30.11v0c21.87-21.869 21.872-57.326.004-79.196 -.002-.002-.003-.003-.005-.005Zm-77.26 133.82l-30.06 30.06h0c-15.447 15.793-40.772 16.074-56.566.628 -15.794-15.447-16.075-40.772-.629-56.566 .208-.214.419-.425.633-.633l30.05-30.05h-.001c3.125-3.126 3.125-8.195-.001-11.32 -3.126-3.126-8.195-3.126-11.32 0l-30.05 30.06v-.001c-21.871 21.87-21.871 57.329-.001 79.2 21.87 21.87 57.329 21.87 79.2 0l30.06-30.07v0c3.123-3.126 3.12-8.192-.006-11.315 -3.126-3.124-8.192-3.121-11.315.005Z"/>
</svg>