
<svg viewBox="0 0 256 256" xmlns="http://www.w3.org/2000/svg">
    <path d="M208 80H96V56v0c0-17.674 14.326-32 32-32 15.37 0 29.2 11 32.16 25.59v0c.921 4.321 5.17 7.077 9.492 6.156 4.26-.909 7.011-5.059 6.187-9.337 -4.52-22.26-24.64-38.41-47.84-38.41v0c-26.499.027-47.973 21.501-48 48v24h-32v0c-8.837 0-16 7.163-16 16v112 0c0 8.836 7.163 16 16 16h160v0c8.836 0 16-7.164 16-16v-112 0c0-8.837-7.164-16-16-16Zm0 128H48V96h160v112Zm-80-96v0c-15.464.005-27.996 12.545-27.991 28.009 .004 12.375 8.132 23.28 19.99 26.82v17.17 0c0 4.418 3.581 8 8 8 4.418 0 8-3.582 8-8v-17.17 0c14.817-4.424 23.244-20.022 18.82-34.84 -3.541-11.859-14.446-19.987-26.821-19.991Zm0 40v0c-6.628 0-12-5.373-12-12 0-6.628 5.372-12 12-12 6.627 0 12 5.372 12 12v0c0 6.627-5.373 12-12 12Z"/>
</svg>