
<svg viewBox="0 0 256 256" xmlns="http://www.w3.org/2000/svg">
    <path d="M48 64v0c0-4.419 3.581-8 8-8h16V40v0c0-4.419 3.581-8 8-8 4.418 0 8 3.581 8 8v16h16v0c4.418 0 8 3.581 8 8 0 4.418-3.582 8-8 8H88v16 0c0 4.418-3.582 8-8 8 -4.419 0-8-3.582-8-8V72H56v0c-4.419 0-8-3.582-8-8Zm136 128h-8v-8 0c0-4.419-3.582-8-8-8 -4.419 0-8 3.581-8 8v8h-8v0c-4.419 0-8 3.581-8 8 0 4.418 3.581 8 8 8h8v8 0c0 4.418 3.581 8 8 8 4.418 0 8-3.582 8-8v-8h8v0c4.418 0 8-3.582 8-8 0-4.419-3.582-8-8-8Zm56-48h-16v-16 0c0-4.419-3.582-8-8-8 -4.419 0-8 3.581-8 8v16h-16v0c-4.419 0-8 3.581-8 8 0 4.418 3.581 8 8 8h16v16 0c0 4.418 3.581 8 8 8 4.418 0 8-3.582 8-8v-16h16v0c4.418 0 8-3.582 8-8 0-4.419-3.582-8-8-8Zm-20.69-64L80 219.31v0c-6.248 6.243-16.373 6.243-22.62 0l-20.7-20.68v0c-6.25-6.248-6.251-16.379-.003-22.628 0-.001.001-.002.002-.003l139.32-139.31v0c6.247-6.25 16.378-6.251 22.627-.003 0 0 .001.001.002.002l20.68 20.68v0c6.249 6.247 6.25 16.378.002 22.627 -.001 0-.002.001-.003.002Zm-54.63 32L144 91.31l-96 96L68.68 208ZM208 68.69L187.31 48l-32 32L176 100.69Z"/>
</svg>