
<svg viewBox="0 0 256 256" xmlns="http://www.w3.org/2000/svg">
    <path d="M207 50.25v-.001c-16.434-16.772-38.92-26.232-62.4-26.25h-.33v0c-23.372-.061-45.795 9.234-62.27 25.81l-61.39 62.19v0c-6.188 6.257-6.161 16.335.06 22.56l28.66 28.66v0c2.996 3.01 7.072 4.699 11.32 4.69h.09v0c4.278-.024 8.37-1.759 11.36-4.82l60.9-62.4v0c6.183-6.122 16.113-6.215 22.41-.21v0c3.023 2.937 4.73 6.974 4.73 11.19v-.001c.04 4.485-1.705 8.802-4.85 12L93 183.878v0c-6.34 6.155-6.489 16.285-.333 22.624 .053.055.107.11.162.165l28.66 28.66 -.001-.001c6.216 6.178 16.238 6.231 22.52.12l61.8-60.45c34.45-34.5 34.98-90.44 1.19-124.75ZM60.65 151.89L32 123.24l23.8-24.12 28.52 28.52ZM132.79 224l-28.68-28.65 24.38-23.57L157 200.32Zm61.76-60.44l-26.11 25.54L140 160.68l26.44-25.57 .1-.09v0c6.194-6.245 9.639-14.705 9.57-23.5h-.001c-.037-8.502-3.515-16.626-9.64-22.52v0c-12.634-12.018-32.538-11.796-44.9.5l-26.08 26.68 -28.49-28.44 26.35-26.65v0c13.473-13.552 31.81-21.147 50.92-21.09h.27v-.001c19.21.016 37.606 7.757 51.05 21.48 27.66 28.07 27.16 73.9-1.04 102.1Z"/>
</svg>