
<svg viewBox="0 0 256 256" xmlns="http://www.w3.org/2000/svg">
    <path d="M200 40h-40v0c-8.837 0-16 7.163-16 16v88 0c0 8.836-7.164 16-16 16 -8.837 0-16-7.164-16-16V56v0c0-8.837-7.164-16-16-16H56v0c-8.837 0-16 7.163-16 16v88 0c0 48.601 39.398 88 88 88h.67c48.15-.36 87.33-40.29 87.33-89V56v0c0-8.837-7.164-16-16-16Zm0 16v32h-40V56ZM96 56v32H56V56Zm32.55 160v0c-39.764.303-72.245-31.685-72.548-71.448 -.002-.185-.003-.369-.003-.553v-40h40v40 0c0 17.673 14.326 32 32 32 17.673 0 32-14.327 32-32v-40h40v39c0 40-32 72.71-71.45 73Z"/>
</svg>