
<svg viewBox="0 0 256 256" xmlns="http://www.w3.org/2000/svg">
    <path d="M104 152v0c0 4.418-3.582 8-8 8H56v0c-4.419 0-8-3.582-8-8 0-4.419 3.581-8 8-8h40v0c4.418 0 8 3.581 8 8Zm136-36v60 0c0 8.836-7.164 16-16 16h-88v32 0c0 4.418-3.582 8-8 8 -4.419 0-8-3.582-8-8v-32H32v0c-8.837 0-16-7.164-16-16v-60h-.001c.038-33.122 26.878-59.962 60-60h76V24v0c0-4.419 3.581-8 8-8h32v0c4.418 0 8 3.581 8 8 0 4.418-3.582 8-8 8h-24v24h12l0-.001c33.121.038 59.961 26.878 60 60Zm-120 60v-60 0c0-24.301-19.7-44-44-44 -24.301 0-44 19.699-44 44v60Zm104-60v0c-.028-24.29-19.711-43.973-44-44h-12v72 0c0 4.418-3.582 8-8 8 -4.419 0-8-3.582-8-8V72h-35.25v0c12.276 11.336 19.256 27.289 19.25 44v60h88Z"/>
</svg>