
<svg viewBox="0 0 256 256" xmlns="http://www.w3.org/2000/svg">
    <path d="M128 64v0c-22.092 0-40 17.908-40 40 0 22.091 17.908 40 40 40 22.091 0 40-17.909 40-40v0c0-22.092-17.909-40-40-40Zm0 64v0c-13.255 0-24-10.746-24-24 0-13.255 10.745-24 24-24 13.254 0 24 10.745 24 24v0c0 13.254-10.746 24-24 24Zm0-112v-.001c-48.579.055-87.945 39.421-88 88 0 31.4 14.51 64.68 42 96.25h0c12.352 14.265 26.254 27.111 41.45 38.3v0c2.755 1.93 6.424 1.93 9.18 0v0c15.167-11.194 29.042-24.039 41.37-38.3 27.45-31.57 42-64.85 42-96.25l-.001-.001c-.056-48.579-39.422-87.945-88-88Zm0 206c-16.53-13-72-60.75-72-118v0c0-39.765 32.235-72 72-72 39.764 0 72 32.235 72 72 0 57.23-55.47 105-72 118Z"/>
</svg>