
<svg viewBox="0 0 256 256" xmlns="http://www.w3.org/2000/svg">
    <path d="M232 48H24v0c-8.837 0-16 7.163-16 16v128 0c0 8.836 7.163 16 16 16h208v0c8.836 0 16-7.164 16-16V64v0c0-8.837-7.164-16-16-16Zm0 144H24V64h208v128Zm-104-88v48 0c0 4.418-3.582 8-8 8 -4.419 0-8-3.582-8-8v-28.69l-18.34 18.35v0c-3.123 3.125-8.188 3.128-11.314.006 -.003-.003-.005-.005-.007-.007l-18.34-18.35v28.69 0c0 4.418-3.582 8-8 8 -4.419 0-8-3.582-8-8v-48 0c-.004-4.419 3.575-8.003 7.993-8.007 2.125-.002 4.164.842 5.666 2.346l26.34 26.35 26.34-26.35v0c3.122-3.126 8.187-3.129 11.313-.007 1.503 1.502 2.347 3.54 2.346 5.666Zm77.66 18.34v0c3.125 3.122 3.128 8.187.006 11.313 -.003.002-.005.004-.007.006l-24 24v0c-3.123 3.125-8.188 3.128-11.314.006 -.003-.003-.005-.005-.007-.007l-24-24v0c-3.126-3.126-3.126-8.195 0-11.32 3.125-3.126 8.194-3.126 11.32-.001l10.34 10.35v-28.69 0c0-4.419 3.581-8 8-8 4.418 0 8 3.581 8 8v28.69l10.34-10.35v0c3.122-3.126 8.187-3.129 11.313-.007 .002.002.004.004.006.006Z"/>
</svg>