
<svg viewBox="0 0 256 256" xmlns="http://www.w3.org/2000/svg">
    <path d="M96 120v0c-22.092 0-40 17.908-40 40 0 22.091 17.908 40 40 40 22.091 0 40-17.909 40-40v0c0-22.092-17.909-40-40-40Zm0 64v0c-13.255 0-24-10.746-24-24 0-13.255 10.745-24 24-24 13.254 0 24 10.745 24 24v0c0 13.254-10.746 24-24 24Zm125.66-61.66v0c3.125 3.122 3.128 8.187.006 11.313 -.003.002-.005.004-.007.006l-48 48v0c-3.126 3.125-8.195 3.125-11.32 0 -3.126-3.126-3.126-8.195 0-11.32l48-48v0c3.122-3.126 8.187-3.129 11.313-.007 .002.002.004.004.006.006ZM160 136v0c-4.419.003-8.003-3.576-8.007-7.994 -.002-2.126.842-4.165 2.346-5.667l24-24v0c3.125-3.126 8.194-3.126 11.32 0 3.125 3.125 3.125 8.194 0 11.32l-24 24v0c-1.502 1.499-3.538 2.341-5.66 2.34Zm69.66-66.34l-16 16v0c-3.126 3.125-8.195 3.125-11.32 0 -3.126-3.126-3.126-8.195 0-11.32l16-16v-.001c3.125-3.126 8.194-3.126 11.32 0 3.125 3.125 3.125 8.194 0 11.32ZM122.34 90.34l72-72v0c3.125-3.126 8.194-3.126 11.32-.001 3.125 3.125 3.125 8.194 0 11.32 0 0-.001 0-.001 0l-72 72v0c-3.126 3.125-8.195 3.125-11.32 0 -3.126-3.126-3.126-8.195 0-11.32Zm24.57 109.26v0c3.121 3.123 3.121 8.186 0 11.31v0c-27.888 28.345-73.475 28.717-101.82.829 -28.346-27.888-28.718-73.475-.83-101.82 .274-.279.55-.556.829-.83l82.74-82.75v0c3.125-3.126 8.194-3.126 11.32-.001 3.125 3.125 3.125 8.194 0 11.32 0 0-.001 0-.001 0l-82.75 82.74v-.001c-21.871 21.87-21.871 57.329-.001 79.2 21.87 21.87 57.329 21.87 79.2 0v0c3.123-3.122 8.186-3.122 11.31-.001Z"/>
</svg>