
<svg viewBox="0 0 256 256" xmlns="http://www.w3.org/2000/svg">
    <path d="M227.32 28.68v0c-4.097-4.095-10.087-5.655-15.66-4.08h-.15L19.57 82.84v0c-8.491 2.447-13.391 11.314-10.944 19.805 1.263 4.384 4.339 8.021 8.453 9.994l84.92 41.36 41.3 84.87v0c2.622 5.597 8.258 9.16 14.44 9.13q.69 0 1.38-.06v0c6.612-.536 12.195-5.126 14-11.51l58.2-191.94c0-.05 0-.1 0-.15v0c1.594-5.56.065-11.547-4-15.66Zm-69.49 203.17l-.05.14v-.07l-40.06-82.3 48-48v0c3.043-3.204 2.913-8.267-.29-11.31 -3.088-2.934-7.933-2.934-11.021 0l-48 48 -82.33-40.06h-.07 .14L215.999 40Z"/>
</svg>