
<svg viewBox="0 0 256 256" xmlns="http://www.w3.org/2000/svg">
    <path d="M231.87 114l-168-95.89v-.001c-7.701-4.335-17.457-1.607-21.792 6.093 -2.257 4.008-2.679 8.794-1.159 13.136l30.63 90.66 -30.63 90.67h-.001c-2.944 8.331 1.424 17.472 9.756 20.416 1.71.604 3.51.913 5.323.913v0c2.78-.006 5.511-.73 7.93-2.1l167.92-96.05v0c7.709-4.319 10.458-14.07 6.139-21.779 -1.432-2.557-3.539-4.671-6.09-6.112ZM56 224v0c.004-.04.004-.081-.001-.12L85.739 136h58.26v0c4.418 0 8-3.582 8-8 0-4.419-3.582-8-8-8h-58.26l-29.68-87.84h0c-.01-.057-.031-.111-.06-.16l168 95.83Z"/>
</svg>