
<svg viewBox="0 0 256 256" xmlns="http://www.w3.org/2000/svg">
    <path d="M200 168v0c-14.591.013-27.332 9.877-31 24H72v0c-17.674 0-32-14.327-32-32 0-17.674 14.326-32 32-32h96v0c22.091 0 40-17.909 40-40 0-22.092-17.909-40-40-40H72v0c-4.419 0-8 3.581-8 8 0 4.418 3.581 8 8 8h96v0c13.254 0 24 10.745 24 24 0 13.254-10.746 24-24 24H72v0c-26.51 0-48 21.49-48 48 0 26.509 21.49 48 48 48h97v0c4.418 17.111 21.871 27.402 38.983 22.983 17.111-4.419 27.402-21.872 22.983-38.984 -3.647-14.123-16.382-23.993-30.968-24Zm0 48v0c-8.837 0-16-7.164-16-16 0-8.837 7.163-16 16-16 8.836 0 16 7.163 16 16v0c0 8.836-7.164 16-16 16Z"/>
</svg>