
<svg viewBox="0 0 256 256" xmlns="http://www.w3.org/2000/svg">
    <path d="M53.92 34.62v0c-2.933-3.306-7.989-3.608-11.294-.676 -3.306 2.932-3.608 7.988-.676 11.293 .042.047.085.095.129.141l48.2 53 -53.6 53.62v0c-3.008 2.993-4.693 7.066-4.68 11.31v44.69 0c0 8.836 7.163 16 16 16h44.69 0c4.245.013 8.319-1.676 11.31-4.69l50.4-50.39 47.69 52.46v0c2.932 3.305 7.988 3.607 11.293.675 3.305-2.933 3.607-7.989.675-11.294 -.043-.048-.086-.096-.13-.142ZM92.69 208H48v-44.69l53.06-53 42.56 46.81ZM227.32 73.37l-44.69-44.68v0c-6.248-6.25-16.379-6.251-22.628-.003 -.001 0-.002.001-.003.002l-41.67 41.67v0c-3.124 3.125-3.121 8.191.005 11.315 3.125 3.123 8.191 3.12 11.315-.005l6.35-6.36 44.69 44.69 -9 9v0c-3.132 3.123-3.139 8.193-.015 11.325 3.123 3.131 8.193 3.138 11.325.015l44.32-44.34v0c6.249-6.248 6.25-16.379.002-22.628 -.001-.001-.002-.002-.003-.003ZM192 108.69L147.32 64l24-24L216 84.69Z"/>
</svg>