
<svg viewBox="0 0 256 256" xmlns="http://www.w3.org/2000/svg">
    <path d="M227.31 73.37l-44.68-44.69v0c-6.248-6.25-16.379-6.251-22.628-.003 -.001 0-.002.001-.003.002l-123.31 123.32v0c-3.015 2.99-4.704 7.064-4.69 11.31v44.69 0c0 8.836 7.163 16 16 16h44.69 0c4.245.013 8.319-1.676 11.31-4.69l123.31-123.31v0c6.249-6.248 6.25-16.379.002-22.628 -.001-.001-.002-.002-.003-.003ZM51.31 160L136 75.31 152.69 92 68 176.68ZM48 179.31L76.69 208H48Zm48 25.38L79.31 188 164 103.31 180.69 120Zm96-96L147.31 64l24-24L216 84.68Z"/>
</svg>