
<svg viewBox="0 0 256 256" xmlns="http://www.w3.org/2000/svg">
    <path d="M136 112H48v0c-4.419 0-8 3.581-8 8v88 0c0 4.418 3.581 8 8 8h88v0c4.418 0 8-3.582 8-8v-88 0c0-4.419-3.582-8-8-8Zm-8 88H56v-72h72Zm88-16v16 0c0 8.836-7.164 16-16 16h-24v0c-4.419 0-8-3.582-8-8 0-4.419 3.581-8 8-8h24v-16 0c0-4.419 3.581-8 8-8 4.418 0 8 3.581 8 8Zm0-72v32 0c0 4.418-3.582 8-8 8 -4.419 0-8-3.582-8-8v-32 0c0-4.419 3.581-8 8-8 4.418 0 8 3.581 8 8Zm0-56v16 0c0 4.418-3.582 8-8 8 -4.419 0-8-3.582-8-8V56h-16v0c-4.419 0-8-3.582-8-8 0-4.419 3.581-8 8-8h16v0c8.836 0 16 7.163 16 16Zm-64-8v0c0 4.418-3.582 8-8 8h-32v0c-4.419 0-8-3.582-8-8 0-4.419 3.581-8 8-8h32v0c4.418 0 8 3.581 8 8ZM40 80V56v0c0-8.837 7.163-16 16-16h16v0c4.418 0 8 3.581 8 8 0 4.418-3.582 8-8 8H56v24 0c0 4.418-3.582 8-8 8 -4.419 0-8-3.582-8-8Z"/>
</svg>