
<svg viewBox="0 0 256 256" xmlns="http://www.w3.org/2000/svg">
    <path d="M152 224v0c0 4.418-3.582 8-8 8h-32v0c-4.419 0-8-3.582-8-8 0-4.419 3.581-8 8-8h32v0c4.418 0 8 3.581 8 8Zm-24-112v0c6.627 0 12-5.373 12-12 0-6.628-5.373-12-12-12 -6.628 0-12 5.372-12 12v0c0 6.627 5.372 12 12 12Zm95.62 43.83l-12.36 55.63v0c-1.915 8.626-10.461 14.067-19.087 12.152 -2.343-.52-4.538-1.56-6.424-3.043l-27.24-20.57h-61l-27.26 20.57v0c-6.947 5.462-17.006 4.259-22.468-2.687 -1.483-1.886-2.523-4.081-3.043-6.424l-12.36-55.63h-.001c-1.063-4.838.162-9.895 3.32-13.71l28.56-34.26 -.001 0c.958-12.591 3.849-24.959 8.57-36.67 12.9-32.34 36-52.63 45.37-59.85v-.001c5.768-4.47 13.831-4.47 19.6-.001 9.34 7.22 32.47 27.51 45.37 59.85h0c4.72 11.711 7.611 24.079 8.57 36.67l28.56 34.26v0c3.157 3.815 4.382 8.872 3.32 13.71ZM99.43 184h57.14c21.12-37.54 25.07-73.48 11.74-106.88C156.55 47.64 134.49 29 128 24c-6.51 5-28.57 23.64-40.33 53.12 -13.31 33.4-9.36 69.34 11.76 106.88Zm-15 5.85q-16.15-29.35-19.6-57.69L48 152.36 60.36 208l.18-.13ZM208 152.36l-16.83-20.2q-3.42 28.28-19.56 57.69l23.85 18 .18.13Z"/>
</svg>