
<svg viewBox="0 0 256 256" xmlns="http://www.w3.org/2000/svg">
    <path d="M235.32 73.37l-52.69-52.68v0c-6.248-6.25-16.379-6.251-22.628-.003 -.001 0-.002.001-.003.002l-139.32 139.31v0c-6.25 6.247-6.251 16.378-.003 22.627 0 0 .001.001.002.002l52.69 52.68v0c6.247 6.249 16.378 6.25 22.627.002 0-.001.001-.002.002-.003l139.32-139.31v0c6.249-6.248 6.25-16.379.002-22.628 -.001-.001-.002-.002-.003-.003ZM84.68 224L32 171.31l32-32 26.34 26.35h0c3.125 3.125 8.194 3.125 11.32 0 3.125-3.126 3.125-8.195-.001-11.32L75.309 128l20.69-20.69 26.34 26.35v0c3.125 3.125 8.194 3.125 11.32 0 3.125-3.126 3.125-8.195 0-11.32L107.309 96l20.69-20.69 26.34 26.35v0c3.125 3.125 8.194 3.125 11.32-.001 3.125-3.126 3.125-8.195 0-11.32l-26.35-26.34 32-32 52.69 52.69Z"/>
</svg>