
<svg viewBox="0 0 256 256" xmlns="http://www.w3.org/2000/svg">
    <path d="M224 40v40 0c0 4.418-3.582 8-8 8 -4.419 0-8-3.582-8-8V48h-32v0c-4.419 0-8-3.582-8-8 0-4.419 3.581-8 8-8h40v0c4.418 0 8 3.581 8 8ZM80 208H48v-32 0c0-4.419-3.582-8-8-8 -4.419 0-8 3.581-8 8v40 0c0 4.418 3.581 8 8 8h40v0c4.418 0 8-3.582 8-8 0-4.419-3.582-8-8-8Zm136-40v0c-4.419 0-8 3.581-8 8v32h-32v0c-4.419 0-8 3.581-8 8 0 4.418 3.581 8 8 8h40v0c4.418 0 8-3.582 8-8v-40 0c0-4.419-3.582-8-8-8ZM40 88v0c4.418 0 8-3.582 8-8V48h32v0c4.418 0 8-3.582 8-8 0-4.419-3.582-8-8-8H40v0c-4.419 0-8 3.581-8 8v40 0c0 4.418 3.581 8 8 8Zm40-16h96v0c4.418 0 8 3.581 8 8v96 0c0 4.418-3.582 8-8 8H80v0c-4.419 0-8-3.582-8-8V80v0c0-4.419 3.581-8 8-8Zm8 96h80V88H88Z"/>
</svg>