
<svg viewBox="0 0 256 256" xmlns="http://www.w3.org/2000/svg">
    <path d="M229.66 109.66l-48 48v0c-3.126 3.125-8.195 3.125-11.32 0 -3.126-3.126-3.126-8.195 0-11.32L204.69 112H165v0c-40.137-.012-75.196 27.137-85.23 66v0c-1.105 4.28-5.47 6.854-9.75 5.75 -4.281-1.105-6.855-5.47-5.75-9.75h0C76.11 128.058 117.556 95.963 165 96h39.71l-34.37-34.34v-.001c-3.126-3.126-3.126-8.195 0-11.32 3.125-3.126 8.194-3.126 11.32-.001l48 48v0c3.125 3.122 3.128 8.187.006 11.313 -.003.002-.005.004-.007.006ZM192 208H40V88v0c-.001-4.419-3.582-8-8-8 -4.419 0-8 3.581-8 8v128 0c0 4.418 3.581 8 8 8h160v0c4.418 0 8-3.582 8-8 0-4.419-3.582-8-8-8Z"/>
</svg>