
<svg viewBox="0 0 256 256" xmlns="http://www.w3.org/2000/svg">
    <path d="M232 168H63.86c2.66-5.24 5.33-10.63 8-16.11 15 1.65 32.58-8.78 52.66-31.14 5 13.46 14.45 30.93 30.58 31.25 9.06.18 18.11-5.2 27.42-16.37C189.31 143.75 203.3 152 232 152v0c4.418 0 8-3.582 8-8 0-4.419-3.582-8-8-8 -30.43 0-39.43-10.45-40-16.11v0c.185-3.534-2.071-6.736-5.46-7.75v0c-3.518-1.057-7.308.373-9.25 3.49 -12.07 18.54-19.38 20.43-21.92 20.37 -8.26-.16-16.66-19.52-19.54-33.42v0c-.894-4.328-5.126-7.111-9.453-6.218 -1.832.378-3.473 1.385-4.638 2.847 -20.2 25.34-33.74 33.87-42.17 36.08 8.49-18.87 14.83-35.44 18.89-49.39 6.82-23.44 7.32-39.83 1.51-50.1 -3-5.38-9.34-11.8-22.06-11.8 -16.06-.001-28.73 15.18-34.77 41.65 -3.59 15.71-4.18 33.21-1.62 48 2.56 14.79 7.87 25.55 15.59 31.94 -3.73 7.72-7.53 15.26-11.23 22.41h-21.88v0c-4.419 0-8 3.581-8 8 0 4.418 3.581 8 8 8h13.41c-11.32 21-20.12 35.64-20.26 35.88h-.001c-2.364 3.733-1.254 8.675 2.479 11.038 3.733 2.363 8.675 1.253 11.038-2.48 .066-.105.13-.212.191-.319 .15-.26 11.27-18.79 24.7-44.12h176.44v0c4.418 0 8-3.582 8-8 0-4.419-3.582-8-8-8ZM58.74 69.21C62.72 51.74 70.43 40 77.91 40c5.33 0 7.1 1.86 8.13 3.67 3 5.33 6.52 24.19-21.66 86.39 -8.26-11.28-11.07-37.06-5.64-60.85Z"/>
</svg>