
<svg viewBox="0 0 256 256" xmlns="http://www.w3.org/2000/svg">
    <path d="M92 104v0c-15.464 0-28 12.536-28 28 0 15.463 12.536 28 28 28 15.463 0 28-12.537 28-28v0c0-15.464-12.537-28-28-28Zm0 40v0c-6.628 0-12-5.373-12-12 0-6.628 5.372-12 12-12 6.627 0 12 5.372 12 12v0c0 6.627-5.373 12-12 12Zm72-40v0c-15.464 0-28 12.536-28 28 0 15.463 12.536 28 28 28 15.463 0 28-12.537 28-28v0c0-15.464-12.537-28-28-28Zm0 40v0c-6.628 0-12-5.373-12-12 0-6.628 5.372-12 12-12 6.627 0 12 5.372 12 12v0c0 6.627-5.373 12-12 12ZM128 16C70.65 16 24 60.86 24 116c0 34.1 18.27 66 48 84.28V216v0c0 8.836 7.163 16 16 16h80v0c8.836 0 16-7.164 16-16v-15.72C213.73 182 232 150.1 232 116c0-55.14-46.65-100-104-100Zm44.12 172.69v0c-2.544 1.41-4.122 4.091-4.12 7V216h-16v-24 0c0-4.419-3.582-8-8-8 -4.419 0-8 3.581-8 8v24h-16v-24 0c0-4.419-3.582-8-8-8 -4.419 0-8 3.581-8 8v24H88v-20.31 0c.001-2.909-1.577-5.59-4.12-7C56.81 173.69 40 145.84 40 116c0-46.32 39.48-84 88-84s88 37.68 88 84c0 29.83-16.81 57.69-43.88 72.69Z"/>
</svg>