
<svg viewBox="0 0 256 256" xmlns="http://www.w3.org/2000/svg">
    <path d="M92 152v0c-6.628 0-12-5.373-12-12 0-6.628 5.372-12 12-12 6.627 0 12 5.372 12 12v0c0 6.627-5.373 12-12 12Zm72-24v0c-6.628 0-12 5.372-12 12 0 6.627 5.372 12 12 12 6.627 0 12-5.373 12-12v0c0-6.628-5.373-12-12-12Zm68 0v0c0 57.437-46.563 104-104 104 -57.438 0-104-46.563-104-104C24 70.562 70.562 24 128 24v0c57.412.06 103.939 46.587 104 104Zm-16 0v0c0-48.602-39.399-88-88-88 -48.602 0-88 39.398-88 88 0 48.601 39.398 88 88 88h-.001c48.578-.056 87.944-39.422 88-88Zm-44.44-46.66L128 110.39l-43.56-29h-.001c-3.679-2.453-8.648-1.459-11.1 2.22 -2.453 3.678-1.459 8.647 2.22 11.1 0 0 0 0 0 0l48 32v0c2.688 1.793 6.191 1.793 8.88 0l48-32v0c3.678-2.453 4.672-7.422 2.219-11.1 -2.453-3.679-7.422-4.673-11.1-2.22Zm-15.13 96C148 171.73 139.94 168 128 168c-11.94 0-20 3.73-28.43 9.34v0c-3.636 2.51-4.548 7.493-2.037 11.128 2.449 3.546 7.266 4.514 10.896 2.191 6.5-4.32 11.57-6.66 19.57-6.66s13.07 2.34 19.57 6.66v0c3.635 2.51 8.618 1.599 11.128-2.037s1.599-8.619-2.037-11.129c-.077-.053-.155-.105-.233-.155Z"/>
</svg>