
<svg viewBox="0 0 256 256" xmlns="http://www.w3.org/2000/svg">
    <path d="M128 24v0C70.562 24 24 70.562 24 128c0 57.437 46.562 104 104 104 57.437 0 104-46.563 104-104v0c-.061-57.413-46.588-103.94-104-104Zm0 192v0c-48.602 0-88-39.399-88-88 0-48.602 39.398-88 88-88 48.601 0 88 39.398 88 88v0c-.056 48.578-39.422 87.944-88 88Zm61.66-93.66v0c3.125 3.125 3.125 8.194 0 11.32 -3.126 3.125-8.195 3.125-11.32 0L168 123.31l-10.34 10.35v0c-3.126 3.125-8.195 3.125-11.32 0 -3.126-3.126-3.126-8.195 0-11.32L156.69 112l-10.35-10.34v0c-3.126-3.126-3.126-8.195 0-11.32 3.125-3.126 8.194-3.126 11.32-.001l10.34 10.35 10.34-10.35v-.001c3.125-3.126 8.194-3.126 11.32 0 3.125 3.125 3.125 8.194 0 11.32l-10.35 10.34Zm-80-20.68L99.31 112l10.35 10.34v0c3.125 3.125 3.125 8.194 0 11.32 -3.126 3.125-8.195 3.125-11.32 0L88 123.31l-10.34 10.35v0c-3.126 3.125-8.195 3.125-11.32 0 -3.126-3.126-3.126-8.195 0-11.32L76.69 112l-10.35-10.34 0 0c-3.126-3.126-3.126-8.195-.001-11.32 3.125-3.126 8.194-3.126 11.32-.001l10.34 10.35 10.34-10.35v0c3.125-3.126 8.194-3.126 11.32 0 3.125 3.125 3.125 8.194 0 11.32ZM140 180v0c0 6.627-5.373 12-12 12 -6.628 0-12-5.373-12-12 0-6.628 5.372-12 12-12v0c6.627 0 12 5.372 12 12Z"/>
</svg>