
<svg viewBox="0 0 256 256" xmlns="http://www.w3.org/2000/svg">
    <path d="M128 24v0C70.562 24 24 70.562 24 128c0 57.437 46.562 104 104 104 57.437 0 104-46.563 104-104v0c-.061-57.413-46.588-103.94-104-104Zm0 192v0c-48.602 0-88-39.399-88-88 0-48.602 39.398-88 88-88 48.601 0 88 39.398 88 88v0c-.056 48.578-39.422 87.944-88 88ZM80 108v0c0-6.628 5.372-12 12-12 6.627 0 12 5.372 12 12 0 6.627-5.373 12-12 12v0c-6.628 0-12-5.373-12-12Zm96 0v0c0 6.627-5.373 12-12 12 -6.628 0-12-5.373-12-12 0-6.628 5.372-12 12-12v0c6.627 0 12 5.372 12 12Zm-1.08 64v0c2.37 3.728 1.269 8.672-2.46 11.043 -3.729 2.37-8.673 1.269-11.044-2.46 -.121-.19-.234-.385-.338-.584 -7.47-12.91-19.21-20-33.08-20 -13.87 0-25.61 7.1-33.08 20v0c-2.048 3.914-6.882 5.428-10.797 3.38 -3.915-2.048-5.429-6.882-3.381-10.797 .104-.2.216-.394.337-.584 10.29-17.79 27.39-28 46.92-28s36.63 10.2 46.92 28Z"/>
</svg>