
<svg viewBox="0 0 256 256" xmlns="http://www.w3.org/2000/svg">
    <path d="M128 24v0C70.562 24 24 70.562 24 128c0 57.437 46.562 104 104 104 57.437 0 104-46.563 104-104v0c-.061-57.413-46.588-103.94-104-104Zm0 192v0c-48.602 0-88-39.399-88-88 0-48.602 39.398-88 88-88 48.601 0 88 39.398 88 88v0c-.056 48.578-39.422 87.944-88 88ZM80 108v0c0-6.628 5.372-12 12-12 6.627 0 12 5.372 12 12 0 6.627-5.373 12-12 12v0c-6.628 0-12-5.373-12-12Zm96 0v0c0 6.627-5.373 12-12 12 -6.628 0-12-5.373-12-12 0-6.628 5.372-12 12-12v0c6.627 0 12 5.372 12 12Zm-1.07 48c-10.29 17.79-27.4 28-46.93 28s-36.63-10.2-46.92-28v0c-2.371-3.729-1.27-8.673 2.459-11.044 3.728-2.371 8.672-1.27 11.043 2.459 .12.189.233.384.337.583 7.47 12.91 19.21 20 33.08 20 13.87 0 25.61-7.1 33.07-20v0c2.209-3.828 7.102-5.14 10.93-2.93 3.827 2.209 5.139 7.102 2.93 10.93Z"/>
</svg>