
<svg viewBox="0 0 256 256" xmlns="http://www.w3.org/2000/svg">
    <path d="M128 24v0C70.562 24 24 70.562 24 128c0 57.437 46.562 104 104 104 57.437 0 104-46.563 104-104v0c-.061-57.413-46.588-103.94-104-104Zm0 192v0c-48.602 0-88-39.399-88-88 0-48.602 39.398-88 88-88 48.601 0 88 39.398 88 88v0c-.056 48.578-39.422 87.944-88 88ZM80 108v0c0-6.628 5.372-12 12-12 6.627 0 12 5.372 12 12 0 6.627-5.373 12-12 12v0c-6.628 0-12-5.373-12-12Zm104 0v0c0 4.418-3.582 8-8 8h-24v0c-4.419 0-8-3.582-8-8 0-4.419 3.581-8 8-8h24v0c4.418 0 8 3.581 8 8Zm-9.08 48c-10.29 17.79-27.39 28-46.92 28s-36.63-10.2-46.93-28v0c-2.21-3.828-.898-8.721 2.929-10.93 3.827-2.21 8.72-.898 10.93 2.929 0 0 0 0 0 0 7.46 12.91 19.2 20 33.07 20 13.87 0 25.61-7.1 33.08-20v0c2.047-3.915 6.881-5.429 10.796-3.381 3.914 2.047 5.428 6.881 3.38 10.796 -.105.199-.217.393-.338.583Z"/>
</svg>