
<svg viewBox="0 0 256 256" xmlns="http://www.w3.org/2000/svg">
    <path d="M128 128v0c0 4.418-3.582 8-8 8H48v0c-4.419 0-8-3.582-8-8 0-4.419 3.581-8 8-8h72v0c4.418 0 8 3.581 8 8ZM48 72h136v0c4.418 0 8-3.582 8-8 0-4.419-3.582-8-8-8H48v0c-4.419 0-8 3.581-8 8 0 4.418 3.581 8 8 8Zm56 112H48v0c-4.419 0-8 3.581-8 8 0 4.418 3.581 8 8 8h56v0c4.418 0 8-3.582 8-8 0-4.419-3.582-8-8-8Zm125.66-21.66v0c-3.123-3.126-8.188-3.129-11.314-.007 -.003.002-.005.004-.007.006l-26.34 26.35v-76.69 0c0-4.419-3.582-8-8-8 -4.419 0-8 3.581-8 8v76.69l-26.34-26.35v0c-3.126-3.126-8.195-3.126-11.32-.001 -3.126 3.125-3.126 8.194-.001 11.32l40 40v0c3.122 3.125 8.187 3.128 11.313.006 .002-.003.004-.005.006-.007l40-40v0c3.125-3.123 3.128-8.188.006-11.314 -.003-.003-.005-.005-.007-.007Z"/>
</svg>