
<svg viewBox="0 0 256 256" xmlns="http://www.w3.org/2000/svg">
    <path d="M40 128v0c0-4.419 3.581-8 8-8h72v0c4.418 0 8 3.581 8 8 0 4.418-3.582 8-8 8H48v0c-4.419 0-8-3.582-8-8Zm8-56h56v0c4.418 0 8-3.582 8-8 0-4.419-3.582-8-8-8H48v0c-4.419 0-8 3.581-8 8 0 4.418 3.581 8 8 8Zm136 112H48v0c-4.419 0-8 3.581-8 8 0 4.418 3.581 8 8 8h136v0c4.418 0 8-3.582 8-8 0-4.419-3.582-8-8-8Zm45.66-101.66l-40-40v0c-3.123-3.126-8.188-3.129-11.314-.007 -.003.002-.005.004-.007.006l-40 40v-.001c-3.126 3.125-3.126 8.194 0 11.32 3.125 3.125 8.194 3.125 11.32 0l26.34-26.35v76.69 0c0 4.418 3.581 8 8 8 4.418 0 8-3.582 8-8v-76.69l26.34 26.35v0c3.125 3.125 8.194 3.125 11.32-.001 3.125-3.126 3.125-8.195 0-11.32Z"/>
</svg>