
<svg viewBox="0 0 256 256" xmlns="http://www.w3.org/2000/svg">
    <path d="M220 160v0c0 6.627-5.373 12-12 12 -6.628 0-12-5.373-12-12 0-6.628 5.372-12 12-12v0c6.627 0 12 5.372 12 12Zm-4.55 39.29v0c-3.631 23.404-23.766 40.679-47.45 40.71h-24v0c-26.499-.028-47.973-21.502-48-48v-40.51 0C64.003 147.458 40.004 120.249 40 88V40v0c0-4.419 3.581-8 8-8h24v0c4.418 0 8 3.581 8 8 0 4.418-3.582 8-8 8H56v40 0c-.003 26.509 21.486 48.001 47.995 48.004 .214 0 .429-.002.644-.005 26.11-.34 47.36-22.25 47.36-48.83v-39.17h-16v0c-4.419 0-8-3.582-8-8 0-4.419 3.581-8 8-8h24v0c4.418 0 8 3.581 8 8v47.17c0 32.84-24.53 60.29-56 64.31v40.52 0c0 17.673 14.326 32 32 32h24 0c14.966-.025 27.924-10.402 31.22-25v-.001c-21.555-4.842-35.103-26.24-30.262-47.795 4.841-21.555 26.239-35.103 47.794-30.262 21.554 4.841 35.102 26.239 30.261 47.794 -3.495 15.558-15.898 27.555-31.565 30.531ZM232 160v0c0-13.255-10.746-24-24-24 -13.255 0-24 10.745-24 24 0 13.254 10.745 24 24 24v0c13.254 0 24-10.746 24-24Z"/>
</svg>