
<svg viewBox="0 0 256 256" xmlns="http://www.w3.org/2000/svg">
    <path d="M168 32H88v0c-30.915.033-55.967 25.085-56 56v80 0c.033 30.914 25.085 55.966 56 56h48v0c.859-.002 1.713-.14 2.53-.41 26.23-8.75 76.31-58.83 85.06-85.06v0c.27-.817.408-1.671.41-2.53V88v0c-.034-30.915-25.086-55.967-56-56ZM48 168V88v0c-.001-22.092 17.908-40 40-40h80v0c22.091 0 40 17.908 40 40v40h-24v0c-30.915.033-55.967 25.085-56 56v24H88v0c-22.092 0-40-17.909-40-40Zm96 35.14V184v0c0-22.092 17.908-40 40-40h19.14C191 163.5 163.5 191 144 203.14Z"/>
</svg>