
<svg viewBox="0 0 256 256" xmlns="http://www.w3.org/2000/svg">
    <path d="M76 152v0c-19.883 0-36 16.117-36 36 0 19.882 16.117 36 36 36 19.882 0 36-16.118 36-36v0c0-19.883-16.118-36-36-36Zm0 56v0c-11.046 0-20-8.955-20-20 0-11.046 8.954-20 20-20 11.045 0 20 8.954 20 20v0c0 11.045-8.955 20-20 20ZM42.34 106.34L56.69 92 42.34 77.66h0c-3.126-3.126-3.126-8.195 0-11.32 3.125-3.126 8.194-3.126 11.32 0L68 80.69l14.34-14.35v0c3.125-3.126 8.194-3.126 11.32 0 3.125 3.125 3.125 8.194 0 11.32L79.31 92l14.35 14.34v0c3.125 3.125 3.125 8.194 0 11.32 -3.126 3.125-8.195 3.125-11.32 0L68 103.31l-14.34 14.35 0-.001c-3.126 3.125-8.195 3.125-11.32-.001 -3.126-3.126-3.126-8.195-.001-11.32Zm187.32 96v0c3.125 3.125 3.125 8.194 0 11.32 -3.126 3.125-8.195 3.125-11.32 0L204 199.31l-14.34 14.35v0c-3.126 3.125-8.195 3.125-11.32 0 -3.126-3.126-3.126-8.195 0-11.32L192.69 188l-14.35-14.34v0c-3.126-3.126-3.126-8.195 0-11.32 3.125-3.126 8.194-3.126 11.32 0L204 176.69l14.34-14.35v0c3.125-3.126 8.194-3.126 11.32 0 3.125 3.125 3.125 8.194 0 11.32L215.31 188Zm-45.19-89.51c-6.18 22.33-25.32 41.63-46.53 46.93h-.001c-.635.157-1.287.238-1.94.24v0c-4.419-.009-7.994-3.597-7.986-8.015 .006-3.664 2.501-6.855 6.055-7.746 15.63-3.91 30.35-18.91 35-35.68 3.19-11.5 3.22-29-14.71-46.9l-2.36-2.35v20.69 0c0 4.418-3.582 8-8 8 -4.419 0-8-3.582-8-8v-40 0c0-4.419 3.581-8 8-8h40v0c4.418 0 8 3.581 8 8 0 4.418-3.582 8-8 8h-20.69l2.35 2.34c18.24 18.25 24.92 40.44 18.81 62.49Z"/>
</svg>