
<svg viewBox="0 0 256 256" xmlns="http://www.w3.org/2000/svg">
    <path d="M224 48v104 0c0 8.836-7.164 16-16 16H99.31l10.35 10.34v0c3.125 3.125 3.125 8.194 0 11.32 -3.126 3.125-8.195 3.125-11.32 0l-24-24v0c-3.126-3.123-3.129-8.188-.007-11.314 .002-.003.004-.005.006-.007l24-24v0c3.125-3.126 8.194-3.126 11.32 0 3.125 3.125 3.125 8.194 0 11.32l-10.35 10.34h108.69v-104h-112v8 0c0 4.418-3.582 8-8 8 -4.419 0-8-3.582-8-8v-8 0c0-8.837 7.163-16 16-16h112v0c8.836 0 16 7.163 16 16Zm-56 144v0c-4.419 0-8 3.581-8 8v8H48V104h108.69l-10.35 10.34v-.001c-3.126 3.125-3.126 8.194 0 11.32 3.125 3.125 8.194 3.125 11.32 0l24-24v0c3.125-3.123 3.128-8.188.006-11.314 -.003-.003-.005-.005-.007-.007l-24-24v0c-3.126-3.126-8.195-3.126-11.32 0 -3.126 3.125-3.126 8.194 0 11.32l10.35 10.34H47.999v0c-8.837 0-16 7.163-16 16v104 0c0 8.836 7.163 16 16 16h112v0c8.836 0 16-7.164 16-16v-8 0c0-4.419-3.582-8-8-8Z"/>
</svg>