
<svg viewBox="0 0 256 256" xmlns="http://www.w3.org/2000/svg">
    <path d="M88 180v0c0 6.627-5.373 12-12 12 -6.628 0-12-5.373-12-12 0-6.628 5.372-12 12-12v0c6.627 0 12 5.372 12 12Zm152-23.81V208v0c0 8.836-7.164 16-16 16H76v-.001c-2.662.001-5.318-.226-7.94-.68v0c-23.816-4.345-39.647-27.112-35.43-50.95l25-143.13 0 0c1.49-8.677 9.732-14.502 18.409-13.011 .02.003.04.007.06.01l54.74 9.76v0c8.671 1.562 14.447 9.842 12.92 18.52l-12.08 69 67.81-24.52v0c8.274-2.989 17.41 1.263 20.45 9.52l19.06 52.17v0c.612 1.771.949 3.626 1 5.5Zm-137 28.68l25-143.13L73.46 32l-25 143.1v0c-2.718 15.151 7.306 29.655 22.44 32.47h-.001c7.188 1.289 14.594-.357 20.56-4.57h0c6.118-4.256 10.274-10.786 11.54-18.13ZM116.78 195L224 156.11 204.92 104l-76.42 27.7 -9.78 55.92v0c-.435 2.51-1.084 4.979-1.94 7.38ZM224 173.12L127.74 208H224Z"/>
</svg>