
<svg viewBox="0 0 256 256" xmlns="http://www.w3.org/2000/svg">
    <path d="M208 32H48v0c-8.837 0-16 7.163-16 16v160 0c0 8.836 7.163 16 16 16h160v0c8.836 0 16-7.164 16-16V48v0c0-8.837-7.164-16-16-16ZM96 120v0c0-17.674 14.326-32 32-32 17.673 0 32 14.326 32 32 0 17.673-14.327 32-32 32v0c-17.674 0-32-14.327-32-32Zm-27.33 88v0c4.093-10.079 10.675-18.955 19.13-25.8v0c23.455-18.935 56.944-18.935 80.4 0v0c8.454 6.845 15.036 15.721 19.13 25.8ZM208 208h-3.67l-.001-.001c-7.204-22.932-24.348-41.402-46.68-50.29v0c20.847-16.376 24.472-46.551 8.097-67.398 -16.376-20.848-46.551-24.473-67.398-8.098 -20.848 16.375-24.473 46.55-8.098 67.397 2.366 3.012 5.084 5.731 8.097 8.097h-.001c-22.333 8.888-39.477 27.358-46.68 50.29h-3.67v-160h160v160Z"/>
</svg>