
<svg viewBox="0 0 256 256" xmlns="http://www.w3.org/2000/svg">
    <path d="M229.66 197.66l-32 32v0c-3.126 3.125-8.195 3.125-11.32 0 -3.126-3.126-3.126-8.195 0-11.32L204.69 200H80v0c-4.419 0-8-3.582-8-8V59.31L53.66 77.66h-.001c-3.126 3.125-8.195 3.125-11.32 0 -3.126-3.126-3.126-8.195-.001-11.32l32-32v0c3.122-3.126 8.187-3.129 11.313-.007 .002.002.004.004.006.006l32 32v0c3.125 3.125 3.125 8.194 0 11.32 -3.126 3.125-8.195 3.125-11.32 0l-18.34-18.35v124.69h116.69l-18.35-18.34v0c-3.126-3.126-3.126-8.195 0-11.32 3.125-3.126 8.194-3.126 11.32 0l32 32v0c3.125 3.122 3.128 8.187.006 11.313 -.003.002-.005.004-.007.006Z"/>
</svg>