
<svg viewBox="0 0 256 256" xmlns="http://www.w3.org/2000/svg">
    <path d="M213.92 210.62v0c3.01 3.233 2.829 8.295-.405 11.306 -3.234 3.01-8.296 2.829-11.307-.405 -.044-.047-.087-.095-.13-.142l-52-57.15v0c-19.114-7.584-40.779-4.852-57.41 7.24v0c-3.525 2.663-8.542 1.965-11.206-1.56 -2.664-3.525-1.966-8.542 1.559-11.206 .074-.057.15-.112.226-.166h-.001c12.984-9.495 28.664-14.589 44.75-14.54 1.28 0 2.55 0 3.82.1l-26.92-29.61h-.001c-16.025 3.515-31.038 10.635-43.9 20.82h-.001c-3.457 2.752-8.49 2.181-11.242-1.275 -.01-.012-.019-.024-.029-.036h0c-2.746-3.454-2.178-8.478 1.27-11.23l0-.001c12.399-9.808 26.555-17.159 41.71-21.66l-23.34-25.71 0 0c-14.567 5.916-28.152 14.008-40.29 24v0c-3.425 2.805-8.475 2.304-11.28-1.12 -2.806-3.425-2.305-8.475 1.12-11.28l-.001 0c11.887-9.76 25.031-17.879 39.08-24.14l-15.92-17.48v0c-3.011-3.234-2.83-8.296.404-11.307 3.233-3.011 8.295-2.83 11.306.404 .043.046.086.094.129.141ZM128 192v0c-6.628 0-12 5.372-12 12 0 6.627 5.372 12 12 12 6.627 0 12-5.373 12-12v0c0-6.628-5.373-12-12-12ZM237.08 87v-.001c-36.664-30.027-84.076-43.627-131.08-37.6v0c-4.396.448-7.595 4.375-7.147 8.77 .448 4.395 4.375 7.594 8.77 7.146 .125-.013.25-.029.375-.048h0c6.633-.846 13.313-1.27 20-1.27v0c36.067.019 71.017 12.516 98.92 35.37v0c3.415 2.805 8.459 2.31 11.265-1.106 2.805-3.416 2.31-8.46-1.105-11.265ZM195 135.31v0c3.462 2.744 8.493 2.163 11.238-1.299 0-.001 0-.001.001-.002v0c2.744-3.463 2.163-8.494-1.299-11.239 -.001-.001-.001-.001-.002-.002l0-.001c-15.131-11.974-32.842-20.26-51.73-24.2v-.001c-4.306-.991-8.6 1.697-9.59 6.003 -.991 4.305 1.697 8.599 6.003 9.589 .124.028.249.054.375.076v0c16.432 3.434 31.839 10.648 45 21.07Z"/>
</svg>