
<svg viewBox="0 0 256 256" xmlns="http://www.w3.org/2000/svg">
    <path d="M140 204v0c0 6.627-5.373 12-12 12 -6.628 0-12-5.373-12-12 0-6.628 5.372-12 12-12v0c6.627 0 12 5.372 12 12Zm97.08-117v0c-63.418-52.018-154.743-52.018-218.16-.001h-.001c-3.416 2.805-3.911 7.849-1.105 11.265 2.805 3.415 7.849 3.91 11.265 1.105h0c57.513-47.165 140.326-47.165 197.84 0v-.001c3.415 2.805 8.459 2.31 11.265-1.106 2.805-3.416 2.31-8.46-1.105-11.265ZM205 122.77v-.001c-45.102-35.708-108.839-35.708-153.94 0h0c-3.463 2.744-4.045 7.777-1.3 11.24 2.744 3.462 7.777 4.044 11.24 1.3h0c39.278-31.092 94.781-31.092 134.06 0v0c3.462 2.744 8.493 2.163 11.238-1.299 0-.001 0-.001.001-.002v0c2.744-3.463 2.163-8.494-1.299-11.239 -.001-.001-.001-.001-.002-.002Zm-32.26 35.76v0c-26.659-19.375-62.762-19.375-89.42-.001v0c-3.574 2.601-4.362 7.606-1.76 11.18 2.601 3.573 7.606 4.361 11.18 1.76h-.001c21.038-15.301 49.541-15.301 70.58 0v0c3.573 2.601 8.578 1.813 11.18-1.76 2.601-3.574 1.813-8.579-1.76-11.18 0 0-.001-.001-.001-.001Z"/>
</svg>