<?xml version="1.0" encoding="UTF-8"?>
<svg id="Layer_1" xmlns="http://www.w3.org/2000/svg" baseProfile="tiny" version="1.2" viewBox="0 0 250 250">
  <!-- Generator: Adobe Illustrator 29.8.1, SVG Export Plug-In . SVG Version: 2.1.1 Build 2)  -->
  <rect x="-3.46" y="-3.12" width="256" height="256" fill="none"/>
  <path d="M44.18,206.63l54.43-6.69c20.57-2.53,35.44-19.27,33.21-37.4-2.23-18.13-20.71-30.78-41.28-28.25-20.57,2.53-35.44,19.27-33.21,37.4,2.79,22.72-13.16,34.94-13.16,34.94Z" fill="none" stroke="#000" stroke-linecap="round" stroke-linejoin="round" stroke-width="15.29"/>
  <path d="M105.49,135.13c11.74-18.02,41.5-59.02,73.4-62.94,3.45,28.11-34.58,63.45-51.63,77.84" fill="none" stroke="#000" stroke-linecap="round" stroke-linejoin="round" stroke-width="15.29"/>
  <path d="M118.26,117.21c10.32,3.61,19.22,9.7,25.73,17.61" fill="none" stroke="#000" stroke-linecap="round" stroke-linejoin="round" stroke-width="15.29"/>
  <rect x="17.5" y="43.15" width="189.38" height="189.38" rx="10.59" ry="10.59" fill="none" stroke="#000" stroke-linecap="round" stroke-linejoin="round" stroke-width="16"/>
  <path d="M71.95,17.21h152c4.42,0,8,3.58,8,8v120" fill="none" stroke="#000" stroke-linecap="round" stroke-linejoin="round" stroke-width="16"/>
</svg>